{
.appVersion = "1075";
copyright = "Copyright 2018 Google Inc. All Rights Reserved.";
customParameters = (
{
name = glyphOrder;
value = (
.notdef,
NULL,
CR,
space,
uni00A0,
u10860,
u10861,
u10862,
u10863,
u10864,
u10865,
u10866,
u10867,
u10868,
u10869,
u1086A,
u1086B,
u1086C,
u1086D,
u1086E,
u1086F,
u10870,
u10871,
u10872,
u10873,
u10874,
u10875,
u10876,
u10877,
u10878,
u10879,
u1087A,
u1087B,
u1087C,
u1087D,
u1087E,
u1087F,
u1086E10876,
u1086E10865,
u1086E10864,
u108711086B,
u1086E10860,
u1086C10876,
u1087310863,
u1087310874,
u1086C10874,
u1086C10867,
u1086C10863,
u1086C10860,
u1086710865,
u1086710863,
u1086110876,
u1086110874,
u1086110865,
u1086110863,
u1086110860,
u1086710874
);
},
{
name = description;
value = "Designed by Monotype design team.";
},
{
name = license;
value = "This Font Software is licensed under the SIL Open Font License, Version 1.1. This Font Software is distributed on an \"AS IS\" BASIS, WITHOUT WARRANTIES OR CONDITIONS OF ANY KIND, either express or implied. See the SIL Open Font License for the specific language, permissions and limitations governing your use of this Font Software.";
},
{
name = licenseURL;
value = "http://scripts.sil.org/OFL";
},
{
name = vendorID;
value = GOOG;
},
{
name = unicodeRanges;
value = (
0,
1,
57
);
},
{
name = trademark;
value = "Noto is a trademark of Google Inc.";
},
{
name = "Has WWS Names";
value = 1;
},
{
name = versionString;
value = "Version 2.000";
},
{
name = fsType;
value = (
);
},
{
name = codePageRanges;
value = (
"1252"
);
}
);
date = "2018-02-02 20:37:09 +0000";
designer = "Monotype Design Team";
designerURL = "http://www.monotype.com/studio";
disablesAutomaticAlignment = 1;
disablesNiceNames = 1;
familyName = "Noto Sans Palmyrene";
fontMaster = (
{
alignmentZones = (
"{1069, 15}",
"{778, 15}",
"{640, 15}",
"{0, -15}",
"{-180, -15}"
);
ascender = 1069;
capHeight = 778;
customParameters = (
{
name = typoAscender;
value = 1069;
},
{
name = typoDescender;
value = -293;
},
{
name = typoLineGap;

glyphs = (
{
glyphname = .notdef;
lastChange = "2018-02-06 17:10:54 +0000";
layers = (
{
layerId = UUID0;
paths = (
{
closed = 1;
nodes = (
"505 0 LINE",
"505 714 LINE",
"94 714 LINE",
"94 0 LINE"
);
},
{
closed = 1;
nodes = (
"145 663 LINE",
"454 663 LINE",
"454 51 LINE",
"145 51 LINE"
);
}
);
width = 600;
}
);
},
{
glyphname = u10860;
lastChange = "2018-02-06 17:10:54 +0000";
layers = (
{
layerId = UUID0;
paths = (
{
closed = 1;
nodes = (
"659 -3 OFFCURVE",
"676 20 OFFCURVE",
"676 45 CURVE SMOOTH",
"676 52 OFFCURVE",
"672 60 OFFCURVE",
"664 66 CURVE SMOOTH",
"571 136 OFFCURVE",
"490 207 OFFCURVE",
"419 283 CURVE",
"483 353 OFFCURVE",
"562 511 OFFCURVE",
"562 605 CURVE SMOOTH",
"562 634 OFFCURVE",
"543 640 OFFCURVE",
"511 640 CURVE SMOOTH",
"489 640 OFFCURVE",
"476 633 OFFCURVE",
"473 605 CURVE SMOOTH",
"462 510 OFFCURVE",
"420 411 OFFCURVE",
"362 348 CURVE",
"295 429 OFFCURVE",
"234 515 OFFCURVE",
"175 607 CURVE SMOOTH",
"161 629 OFFCURVE",
"151 640 OFFCURVE",
"127 640 CURVE SMOOTH",
"103 640 OFFCURVE",
"78 631 OFFCURVE",
"78 605 CURVE SMOOTH",
"78 592 OFFCURVE",
"89 570 OFFCURVE",
"105 547 CURVE SMOOTH",
"128 513 OFFCURVE",
"147 486 OFFCURVE",
"166 459 CURVE",
"70 343 OFFCURVE",
"40 262 OFFCURVE",
"40 197 CURVE SMOOTH",
"40 89 OFFCURVE",
"105 37 OFFCURVE",
"188 37 CURVE SMOOTH",
"241 37 OFFCURVE",
"300 55 OFFCURVE",
"332 118 CURVE SMOOTH",
"336 126 OFFCURVE",
"337 129 OFFCURVE",
"337 137 CURVE SMOOTH",
"337 155 OFFCURVE",
"311 178 OFFCURVE",
"289 178 CURVE SMOOTH",
"275 178 OFFCURVE",
"269 170 OFFCURVE",
"258 154 CURVE SMOOTH",
"245 135 OFFCURVE",
"229 113 OFFCURVE",
"194 113 CURVE SMOOTH",
"146 113 OFFCURVE",
"128 154 OFFCURVE",
"128 210 CURVE SMOOTH",
"128 245 OFFCURVE",
"143 306 OFFCURVE",
"213 394 CURVE",
"249 346 OFFCURVE",
"286 300 OFFCURVE",
"336 246 CURVE SMOOTH",
"424 151 OFFCURVE",
"482 96 OFFCURVE",
"582 21 CURVE SMOOTH",
"598 9 OFFCURVE",
"615 -3 OFFCURVE",
"634 -3 CURVE SMOOTH"
);
}
);
width = 696;
}
);
unicode = 10860;
},
{
glyphname = u10861;
lastChange = "2018-02-06 17:10:54 +0000";
layers = (
{
layerId = UUID0;
paths = (
{
closed = 1;
nodes = (
"406 -8 OFFCURVE",
"477 -3 OFFCURVE",
"521 3 CURVE SMOOTH",
"570 10 OFFCURVE",
"600 45 OFFCURVE",
"600 93 CURVE SMOOTH",
"600 159 OFFCURVE",
"576 291 OFFCURVE",
"542 456 CURVE SMOOTH",
"515 588 OFFCURVE",
"498 635 OFFCURVE",
"446 635 CURVE SMOOTH",
"423 635 OFFCURVE",
"403 627 OFFCURVE",
"383 614 CURVE SMOOTH",
"359 598 OFFCURVE",
"330 582 OFFCURVE",
"275 582 CURVE SMOOTH",
"212 582 OFFCURVE",
"197 605 OFFCURVE",
"187 622 CURVE SMOOTH",
"175 643 OFFCURVE",
"164 647 OFFCURVE",
"141 647 CURVE SMOOTH",
"118 647 OFFCURVE",
"101 637 OFFCURVE",
"101 620 CURVE SMOOTH",
"101 588 OFFCURVE",
"149 508 OFFCURVE",
"262 508 CURVE SMOOTH",
"332 508 OFFCURVE",
"362 521 OFFCURVE",
"383 531 CURVE SMOOTH",
"398 538 OFFCURVE",
"406 540 OFFCURVE",
"414 540 CURVE SMOOTH",
"440 540 OFFCURVE",
"450 487 OFFCURVE",
"459 440 CURVE SMOOTH",
"484 311 OFFCURVE",
"512 150 OFFCURVE",
"512 118 CURVE SMOOTH",
"512 76 OFFCURVE",
"464 70 OFFCURVE",
"284 70 CURVE SMOOTH",
"159 70 OFFCURVE",
"103 84 OFFCURVE",
"70 93 CURVE SMOOTH",
"58 96 OFFCURVE",
"45 99 OFFCURVE",
"35 99 CURVE SMOOTH",
"17 99 OFFCURVE",
"10 85 OFFCURVE",
"10 68 CURVE SMOOTH",
"10 46 OFFCURVE",
"18 21 OFFCURVE",
"42 13 CURVE SMOOTH",
"80 1 OFFCURVE",
"196 -8 OFFCURVE",
"293 -8 CURVE SMOOTH"
);
}
);
width = 660;
}
);
unicode = 10861;
},
{
glyphname = u10862;
lastChange = "2018-02-06 17:10:54 +0000";
layers = (
{
layerId = UUID0;
paths = (
{
closed = 1;
nodes = (
"155 -17 OFFCURVE",
"249 106 OFFCURVE",
"269 226 CURVE",
"320 136 OFFCURVE",
"388 67 OFFCURVE",
"487 14 CURVE SMOOTH",
"513 0 OFFCURVE",
"543 -13 OFFCURVE",
"564 -13 CURVE SMOOTH",
"588 -13 OFFCURVE",
"602 16 OFFCURVE",
"602 34 CURVE SMOOTH",
"602 52 OFFCURVE",
"584 62 OFFCURVE",
"552 78 CURVE SMOOTH",
"413 148 OFFCURVE",
"303 272 OFFCURVE",
"235 613 CURVE SMOOTH",
"231 633 OFFCURVE",
"216 640 OFFCURVE",
"193 640 CURVE SMOOTH",
"163 640 OFFCURVE",
"148 627 OFFCURVE",
"148 607 CURVE SMOOTH",
"148 584 OFFCURVE",
"157 543 OFFCURVE",
"169 498 CURVE SMOOTH",
"180 455 OFFCURVE",
"193 406 OFFCURVE",
"207 365 CURVE",
"202 258 OFFCURVE",
"163 113 OFFCURVE",
"74 51 CURVE SMOOTH",
"64 44 OFFCURVE",
"60 35 OFFCURVE",
"60 23 CURVE SMOOTH",
"60 1 OFFCURVE",
"80 -17 OFFCURVE",
"105 -17 CURVE SMOOTH"
);
}
);
width = 618;
}
);
unicode = 10862;
},
{
glyphname = u10863;
lastChange = "2018-02-06 17:10:54 +0000";
layers = (
{
layerId = UUID0;
paths = (
{
closed = 1;
nodes = (
"563 -13 OFFCURVE",
"572 5 OFFCURVE",
"572 21 CURVE SMOOTH",
"572 28 OFFCURVE",
"569 40 OFFCURVE",
"561 62 CURVE SMOOTH",
"536 130 OFFCURVE",
"513 194 OFFCURVE",
"493 264 CURVE SMOOTH",
"456 392 OFFCURVE",
"444 494 OFFCURVE",
"444 617 CURVE SMOOTH",
"444 635 OFFCURVE",
"433 640 OFFCURVE",
"402 640 CURVE SMOOTH",
"377 640 OFFCURVE",
"363 632 OFFCURVE",
"360 612 CURVE SMOOTH",
"358 597 OFFCURVE",
"358 568 OFFCURVE",
"358 544 CURVE SMOOTH",
"358 486 OFFCURVE",
"294 452 OFFCURVE",
"243 452 CURVE SMOOTH",
"155 452 OFFCURVE",
"108 506 OFFCURVE",
"108 580 CURVE SMOOTH",
"108 589 OFFCURVE",
"108 595 OFFCURVE",
"109 604 CURVE SMOOTH",
"110 612 OFFCURVE",
"110 614 OFFCURVE",
"110 619 CURVE SMOOTH",
"110 633 OFFCURVE",
"99 640 OFFCURVE",
"66 640 CURVE SMOOTH",
"26 640 OFFCURVE",
"20 616 OFFCURVE",
"20 581 CURVE SMOOTH",
"20 521 OFFCURVE",
"53 376 OFFCURVE",
"241 376 CURVE SMOOTH",
"292 376 OFFCURVE",
"339 389 OFFCURVE",
"373 419 CURVE",
"402 239 OFFCURVE",
"471 52 OFFCURVE",
"485 15 CURVE SMOOTH",
"492 -4 OFFCURVE",
"502 -13 OFFCURVE",
"522 -13 CURVE SMOOTH"
);
}
);
width = 632;
}
);
unicode = 10863;
},
{
glyphname = u10864;
lastChange = "2018-02-06 17:10:54 +0000";
layers = (
{
layerId = UUID0;
paths = (
{
closed = 1;
nodes = (
"626 -13 OFFCURVE",
"635 5 OFFCURVE",
"635 21 CURVE SMOOTH",
"635 28 OFFCURVE",
"632 41 OFFCURVE",
"621 68 CURVE SMOOTH",
"574 184 OFFCURVE",
"542 273 OFFCURVE",
"518 375 CURVE SMOOTH",
"500 451 OFFCURVE",
"497 520 OFFCURVE",
"497 601 CURVE SMOOTH",
"497 630 OFFCURVE",
"493 640 OFFCURVE",
"456 640 CURVE SMOOTH",
"412 640 OFFCURVE",
"410 626 OFFCURVE",
"410 558 CURVE SMOOTH",
"410 502 OFFCURVE",
"417 443 OFFCURVE",
"429 385 CURVE",
"344 404 OFFCURVE",
"209 461 OFFCURVE",
"77 593 CURVE SMOOTH",
"67 603 OFFCURVE",
"58 607 OFFCURVE",
"48 607 CURVE SMOOTH",
"24 607 OFFCURVE",
"0 584 OFFCURVE",
"0 562 CURVE SMOOTH",
"0 549 OFFCURVE",
"11 533 OFFCURVE",
"26 517 CURVE SMOOTH",
"125 411 OFFCURVE",
"296 328 OFFCURVE",
"446 300 CURVE",
"287 247 OFFCURVE",
"177 57 OFFCURVE",
"177 25 CURVE SMOOTH",
"177 2 OFFCURVE",
"202 -6 OFFCURVE",
"225 -6 CURVE SMOOTH",
"242 -6 OFFCURVE",
"256 -1 OFFCURVE",
"262 12 CURVE SMOOTH",
"291 74 OFFCURVE",
"377 192 OFFCURVE",
"472 224 CURVE",
"508 118 OFFCURVE",
"538 38 OFFCURVE",
"548 15 CURVE SMOOTH",
"556 -3 OFFCURVE",
"564 -13 OFFCURVE",
"585 -13 CURVE SMOOTH"
);
}
);
width = 696;
}
);
unicode = 10864;
},
{
glyphname = u10865;
lastChange = "2018-02-06 17:10:54 +0000";
layers = (
{
layerId = UUID0;
paths = (
{
closed = 1;
nodes = (
"455 -8 OFFCURVE",
"465 7 OFFCURVE",
"465 24 CURVE SMOOTH",
"465 34 OFFCURVE",
"461 58 OFFCURVE",
"457 82 CURVE SMOOTH",
"388 480 LINE SMOOTH",
"369 590 OFFCURVE",
"322 650 OFFCURVE",
"181 650 CURVE SMOOTH",
"46 650 OFFCURVE",
"0 594 OFFCURVE",
"0 527 CURVE SMOOTH",
"0 463 OFFCURVE",
"27 427 OFFCURVE",
"58 427 CURVE SMOOTH",
"75 427 OFFCURVE",
"96 439 OFFCURVE",
"96 459 CURVE SMOOTH",
"96 468 OFFCURVE",
"93 478 OFFCURVE",
"89 489 CURVE SMOOTH",
"86 498 OFFCURVE",
"84 507 OFFCURVE",
"84 521 CURVE SMOOTH",
"84 547 OFFCURVE",
"99 574 OFFCURVE",
"184 574 CURVE SMOOTH",
"267 574 OFFCURVE",
"291 533 OFFCURVE",
"303 462 CURVE SMOOTH",
"377 32 LINE SMOOTH",
"383 0 OFFCURVE",
"395 -8 OFFCURVE",
"423 -8 CURVE SMOOTH"
);
}
);
width = 522;
}
);
unicode = 10865;
},
{
glyphname = u10866;
lastChange = "2018-02-06 17:10:54 +0000";
layers = (
{
layerId = UUID0;
paths = (
{
closed = 1;
nodes = (
"215 -13 OFFCURVE",
"222 6 OFFCURVE",
"222 22 CURVE SMOOTH",
"222 32 OFFCURVE",
"213 57 OFFCURVE",
"205 79 CURVE SMOOTH",
"176 160 OFFCURVE",
"118 343 OFFCURVE",
"118 508 CURVE SMOOTH",
"118 530 OFFCURVE",
"118 557 OFFCURVE",
"119 578 CURVE SMOOTH",
"120 594 OFFCURVE",
"120 606 OFFCURVE",
"120 617 CURVE SMOOTH",
"120 636 OFFCURVE",
"108 640 OFFCURVE",
"78 640 CURVE SMOOTH",
"50 640 OFFCURVE",
"39 631 OFFCURVE",
"35 617 CURVE SMOOTH",
"31 602 OFFCURVE",
"30 543 OFFCURVE",
"30 514 CURVE SMOOTH",
"30 320 OFFCURVE",
"110 78 OFFCURVE",
"134 15 CURVE SMOOTH",
"141 -3 OFFCURVE",
"153 -13 OFFCURVE",
"174 -13 CURVE SMOOTH"
);
}
);
width = 278;
}
);
unicode = 10866;
},
{
glyphname = u10867;
lastChange = "2018-02-06 17:10:54 +0000";
layers = (
{
layerId = UUID0;
paths = (
{
closed = 1;
nodes = (
"232 -13 OFFCURVE",
"267 44 OFFCURVE",
"267 104 CURVE SMOOTH",
"267 151 OFFCURVE",
"250 222 OFFCURVE",
"227 291 CURVE",
"257 314 OFFCURVE",
"291 336 OFFCURVE",
"322 336 CURVE SMOOTH",
"357 336 OFFCURVE",
"424 291 OFFCURVE",
"480 250 CURVE",
"504 172 OFFCURVE",
"539 75 OFFCURVE",
"566 13 CURVE SMOOTH",
"574 -5 OFFCURVE",
"585 -13 OFFCURVE",
"610 -13 CURVE SMOOTH",
"641 -13 OFFCURVE",
"652 4 OFFCURVE",
"652 19 CURVE SMOOTH",
"652 29 OFFCURVE",
"649 42 OFFCURVE",
"637 71 CURVE SMOOTH",
"554 272 OFFCURVE",
"513 386 OFFCURVE",
"513 596 CURVE SMOOTH",
"513 630 OFFCURVE",
"511 640 OFFCURVE",
"472 640 CURVE SMOOTH",
"444 640 OFFCURVE",
"431 631 OFFCURVE",
"429 617 CURVE SMOOTH",
"426 594 OFFCURVE",
"426 576 OFFCURVE",
"426 558 CURVE SMOOTH",
"426 491 OFFCURVE",
"437 420 OFFCURVE",
"453 352 CURVE",
"401 385 OFFCURVE",
"363 408 OFFCURVE",
"326 408 CURVE SMOOTH",
"282 408 OFFCURVE",
"241 383 OFFCURVE",
"206 358 CURVE",
"184 442 OFFCURVE",
"173 545 OFFCURVE",
"173 607 CURVE SMOOTH",
"173 631 OFFCURVE",
"167 640 OFFCURVE",
"132 640 CURVE SMOOTH",
"95 640 OFFCURVE",
"87 627 OFFCURVE",
"87 602 CURVE SMOOTH",
"87 530 OFFCURVE",
"98 417 OFFCURVE",
"130 315 CURVE SMOOTH",
"158 225 OFFCURVE",
"179 146 OFFCURVE",
"179 114 CURVE SMOOTH",
"179 77 OFFCURVE",
"165 63 OFFCURVE",
"132 63 CURVE SMOOTH",
"113 63 OFFCURVE",
"99 67 OFFCURVE",
"86 72 CURVE SMOOTH",
"75 76 OFFCURVE",
"66 79 OFFCURVE",
"56 79 CURVE SMOOTH",
"36 79 OFFCURVE",
"20 60 OFFCURVE",
"20 39 CURVE SMOOTH",
"20 27 OFFCURVE",
"27 17 OFFCURVE",
"43 7 CURVE SMOOTH",
"63 -5 OFFCURVE",
"96 -13 OFFCURVE",
"134 -13 CURVE SMOOTH"
);
}
);
width = 712;
}
);
unicode = 10867;
},
{
glyphname = u10868;
lastChange = "2018-02-06 17:10:54 +0000";
layers = (
{
layerId = UUID0;
paths = (
{
closed = 1;
nodes = (
"368 -15 OFFCURVE",
"451 59 OFFCURVE",
"451 170 CURVE SMOOTH",
"451 263 OFFCURVE",
"387 341 OFFCURVE",
"277 341 CURVE SMOOTH",
"234 341 OFFCURVE",
"218 329 OFFCURVE",
"218 296 CURVE SMOOTH",
"218 271 OFFCURVE",
"227 264 OFFCURVE",
"241 264 CURVE SMOOTH",
"246 264 OFFCURVE",
"249 264 OFFCURVE",
"256 265 CURVE SMOOTH",
"263 266 OFFCURVE",
"266 266 OFFCURVE",
"272 266 CURVE SMOOTH",
"350 266 OFFCURVE",
"363 202 OFFCURVE",
"363 170 CURVE SMOOTH",
"363 91 OFFCURVE",
"309 61 OFFCURVE",
"249 61 CURVE SMOOTH",
"169 61 OFFCURVE",
"128 122 OFFCURVE",
"128 202 CURVE SMOOTH",
"128 348 OFFCURVE",
"233 489 OFFCURVE",
"338 562 CURVE SMOOTH",
"358 576 OFFCURVE",
"365 584 OFFCURVE",
"365 600 CURVE SMOOTH",
"365 624 OFFCURVE",
"349 646 OFFCURVE",
"327 646 CURVE SMOOTH",
"310 646 OFFCURVE",
"293 634 OFFCURVE",
"273 619 CURVE SMOOTH",
"187 554 OFFCURVE",
"40 392 OFFCURVE",
"40 206 CURVE SMOOTH",
"40 70 OFFCURVE",
"115 -15 OFFCURVE",
"247 -15 CURVE SMOOTH"
);
}
);
width = 491;
}
);
unicode = 10868;
},
{
glyphname = u10869;
lastChange = "2018-02-06 17:10:54 +0000";
layers = (
{
layerId = UUID0;
paths = (
{
closed = 1;
nodes = (
"506 300 OFFCURVE",
"528 317 OFFCURVE",
"528 332 CURVE SMOOTH",
"528 346 OFFCURVE",
"515 368 OFFCURVE",
"502 389 CURVE SMOOTH",
"463 452 OFFCURVE",
"372 589 OFFCURVE",
"261 589 CURVE SMOOTH",
"159 589 OFFCURVE",
"43 437 OFFCURVE",
"10 381 CURVE SMOOTH",
"4 371 OFFCURVE",
"0 362 OFFCURVE",
"0 351 CURVE SMOOTH",
"0 336 OFFCURVE",
"19 323 OFFCURVE",
"41 323 CURVE SMOOTH",
"60 323 OFFCURVE",
"72 336 OFFCURVE",
"95 365 CURVE SMOOTH",
"121 398 OFFCURVE",
"211 512 OFFCURVE",
"265 512 CURVE SMOOTH",
"319 512 OFFCURVE",
"384 421 OFFCURVE",
"431 349 CURVE SMOOTH",
"456 311 OFFCURVE",
"467 300 OFFCURVE",
"487 300 CURVE SMOOTH"
);
}
);
width = 585;
}
);
unicode = 10869;
},
{
glyphname = u1086A;
lastChange = "2018-02-06 17:10:54 +0000";
layers = (
{
layerId = UUID0;
paths = (
{
closed = 1;
nodes = (
"478 -8 OFFCURVE",
"539 93 OFFCURVE",
"539 214 CURVE SMOOTH",
"539 260 OFFCURVE",
"530 324 OFFCURVE",
"517 394 CURVE SMOOTH",
"502 476 OFFCURVE",
"492 545 OFFCURVE",
"484 609 CURVE SMOOTH",
"481 633 OFFCURVE",
"472 640 OFFCURVE",
"434 640 CURVE SMOOTH",
"412 640 OFFCURVE",
"394 632 OFFCURVE",
"394 612 CURVE SMOOTH",
"394 604 OFFCURVE",
"395 596 OFFCURVE",
"398 577 CURVE",
"392 508 OFFCURVE",
"344 472 OFFCURVE",
"285 472 CURVE SMOOTH",
"197 472 OFFCURVE",
"157 552 OFFCURVE",
"148 608 CURVE SMOOTH",
"144 633 OFFCURVE",
"131 640 OFFCURVE",
"100 640 CURVE SMOOTH",
"71 640 OFFCURVE",
"59 629 OFFCURVE",
"59 609 CURVE SMOOTH",
"59 523 OFFCURVE",
"140 398 OFFCURVE",
"283 398 CURVE SMOOTH",
"339 398 OFFCURVE",
"387 416 OFFCURVE",
"419 450 CURVE",
"435 360 OFFCURVE",
"451 260 OFFCURVE",
"451 208 CURVE SMOOTH",
"451 114 OFFCURVE",
"388 68 OFFCURVE",
"288 68 CURVE SMOOTH",
"201 68 OFFCURVE",
"128 97 OFFCURVE",
"85 125 CURVE SMOOTH",
"70 135 OFFCURVE",
"64 138 OFFCURVE",
"55 138 CURVE SMOOTH",
"37 138 OFFCURVE",
"20 116 OFFCURVE",
"20 94 CURVE SMOOTH",
"20 80 OFFCURVE",
"23 71 OFFCURVE",
"41 56 CURVE SMOOTH",
"83 22 OFFCURVE",
"180 -8 OFFCURVE",
"284 -8 CURVE SMOOTH"
);
}
);
width = 599;
}
);
unicode = 1086A;
},
{
glyphname = u1086B;
lastChange = "2018-02-06 17:10:54 +0000";
layers = (
{
layerId = UUID0;
paths = (
{
closed = 1;
nodes = (
"387 -10 OFFCURVE",
"470 48 OFFCURVE",
"470 158 CURVE SMOOTH",
"470 225 OFFCURVE",
"420 406 OFFCURVE",
"332 406 CURVE SMOOTH",
"305 406 OFFCURVE",
"289 395 OFFCURVE",
"258 373 CURVE SMOOTH",
"233 355 OFFCURVE",
"206 338 OFFCURVE",
"178 338 CURVE SMOOTH",
"147 338 OFFCURVE",
"134 371 OFFCURVE",
"124 468 CURVE SMOOTH",
"115 558 OFFCURVE",
"109 681 OFFCURVE",
"109 746 CURVE SMOOTH",
"109 769 OFFCURVE",
"97 778 OFFCURVE",
"64 778 CURVE SMOOTH",
"37 778 OFFCURVE",
"20 771 OFFCURVE",
"20 746 CURVE SMOOTH",
"20 705 OFFCURVE",
"30 557 OFFCURVE",
"39 464 CURVE SMOOTH",
"52 328 OFFCURVE",
"78 262 OFFCURVE",
"169 262 CURVE SMOOTH",
"213 262 OFFCURVE",
"254 281 OFFCURVE",
"278 299 CURVE SMOOTH",
"294 311 OFFCURVE",
"305 318 OFFCURVE",
"314 318 CURVE SMOOTH",
"345 318 OFFCURVE",
"382 219 OFFCURVE",
"382 165 CURVE SMOOTH",
"382 109 OFFCURVE",
"358 66 OFFCURVE",
"270 66 CURVE SMOOTH",
"256 66 OFFCURVE",
"248 67 OFFCURVE",
"241 68 CURVE SMOOTH",
"235 69 OFFCURVE",
"229 70 OFFCURVE",
"223 70 CURVE SMOOTH",
"203 70 OFFCURVE",
"195 58 OFFCURVE",
"195 37 CURVE SMOOTH",
"195 0 OFFCURVE",
"219 -10 OFFCURVE",
"289 -10 CURVE SMOOTH"
);
}
);
width = 530;
}
);
unicode = 1086B;
},
{
glyphname = u1086C;
lastChange = "2018-02-06 17:10:54 +0000";
layers = (
{
layerId = UUID0;
paths = (
{
closed = 1;
nodes = (
"83 -11 OFFCURVE",
"110 -1 OFFCURVE",
"135 12 CURVE SMOOTH",
"268 83 OFFCURVE",
"324 240 OFFCURVE",
"324 387 CURVE SMOOTH",
"324 425 OFFCURVE",
"322 451 OFFCURVE",
"317 476 CURVE",
"388 448 OFFCURVE",
"472 436 OFFCURVE",
"524 436 CURVE",
"524 429 LINE SMOOTH",
"524 373 OFFCURVE",
"551 318 OFFCURVE",
"578 267 CURVE SMOOTH",
"600 225 OFFCURVE",
"620 186 OFFCURVE",
"620 143 CURVE SMOOTH",
"620 87 OFFCURVE",
"582 66 OFFCURVE",
"539 66 CURVE SMOOTH",
"502 66 OFFCURVE",
"468 82 OFFCURVE",
"444 120 CURVE SMOOTH",
"437 131 OFFCURVE",
"432 136 OFFCURVE",
"418 136 CURVE SMOOTH",
"401 136 OFFCURVE",
"366 121 OFFCURVE",
"366 96 CURVE SMOOTH",
"366 54 OFFCURVE",
"424 -10 OFFCURVE",
"536 -10 CURVE SMOOTH",
"606 -10 OFFCURVE",
"708 14 OFFCURVE",
"708 150 CURVE SMOOTH",
"708 214 OFFCURVE",
"683 265 OFFCURVE",
"650 326 CURVE SMOOTH",
"628 367 OFFCURVE",
"608 405 OFFCURVE",
"608 446 CURVE SMOOTH",
"608 451 OFFCURVE",
"608 459 OFFCURVE",
"609 468 CURVE SMOOTH",
"610 479 OFFCURVE",
"610 483 OFFCURVE",
"610 489 CURVE SMOOTH",
"610 509 OFFCURVE",
"590 520 OFFCURVE",
"571 520 CURVE SMOOTH",
"563 520 OFFCURVE",
"554 519 OFFCURVE",
"541 516 CURVE SMOOTH",
"533 514 OFFCURVE",
"525 513 OFFCURVE",
"517 513 CURVE SMOOTH",
"489 513 OFFCURVE",
"328 532 OFFCURVE",
"287 579 CURVE",
"266 613 OFFCURVE",
"244 642 OFFCURVE",
"223 642 CURVE SMOOTH",
"202 642 OFFCURVE",
"181 623 OFFCURVE",
"181 604 CURVE SMOOTH",
"181 593 OFFCURVE",
"185 586 OFFCURVE",
"192 578 CURVE SMOOTH",
"229 532 OFFCURVE",
"243 469 OFFCURVE",
"243 403 CURVE SMOOTH",
"243 284 OFFCURVE",
"214 146 OFFCURVE",
"57 71 CURVE SMOOTH",
"28 57 OFFCURVE",
"20 49 OFFCURVE",
"20 33 CURVE SMOOTH",
"20 9 OFFCURVE",
"34 -11 OFFCURVE",
"61 -11 CURVE SMOOTH"
);
}
);
width = 748;
}
);
unicode = 1086C;
},
{
glyphname = u1086D;
lastChange = "2018-02-06 17:10:54 +0000";
layers = (
{
layerId = UUID0;
paths = (
{
closed = 1;
nodes = (
"295 -180 OFFCURVE",
"316 -171 OFFCURVE",
"316 -149 CURVE SMOOTH",
"316 -139 OFFCURVE",
"315 -128 OFFCURVE",
"314 -118 CURVE SMOOTH",
"313 -105 OFFCURVE",
"312 -89 OFFCURVE",
"312 -54 CURVE SMOOTH",
"312 -29 OFFCURVE",
"313 27 OFFCURVE",
"316 88 CURVE SMOOTH",
"320 158 OFFCURVE",
"321 204 OFFCURVE",
"321 249 CURVE SMOOTH",
"321 306 OFFCURVE",
"305 339 OFFCURVE",
"222 352 CURVE SMOOTH",
"124 367 OFFCURVE",
"88 402 OFFCURVE",
"88 466 CURVE SMOOTH",
"88 517 OFFCURVE",
"124 565 OFFCURVE",
"217 565 CURVE SMOOTH",
"233 565 OFFCURVE",
"248 565 OFFCURVE",
"272 562 CURVE SMOOTH",
"279 561 OFFCURVE",
"290 560 OFFCURVE",
"307 560 CURVE SMOOTH",
"336 560 OFFCURVE",
"341 584 OFFCURVE",
"341 605 CURVE SMOOTH",
"341 620 OFFCURVE",
"333 629 OFFCURVE",
"313 633 CURVE SMOOTH",
"292 637 OFFCURVE",
"263 640 OFFCURVE",
"231 640 CURVE SMOOTH",
"75 640 OFFCURVE",
"0 570 OFFCURVE",
"0 457 CURVE SMOOTH",
"0 345 OFFCURVE",
"72 297 OFFCURVE",
"204 272 CURVE SMOOTH",
"226 268 OFFCURVE",
"237 256 OFFCURVE",
"237 222 CURVE SMOOTH",
"237 204 OFFCURVE",
"235 164 OFFCURVE",
"232 117 CURVE SMOOTH",
"228 47 OFFCURVE",
"224 -38 OFFCURVE",
"224 -94 CURVE SMOOTH",
"224 -113 OFFCURVE",
"224 -132 OFFCURVE",
"228 -152 CURVE SMOOTH",
"232 -170 OFFCURVE",
"250 -180 OFFCURVE",
"274 -180 CURVE SMOOTH"
);
}
);
width = 401;
}
);
unicode = 1086D;
},
{
glyphname = u1086E;
lastChange = "2018-02-06 17:10:54 +0000";
layers = (
{
layerId = UUID0;
paths = (
{
closed = 1;
nodes = (
"294 -35 OFFCURVE",
"367 14 OFFCURVE",
"367 144 CURVE SMOOTH",
"367 228 OFFCURVE",
"347 288 OFFCURVE",
"324 354 CURVE SMOOTH",
"299 425 OFFCURVE",
"273 502 OFFCURVE",
"273 609 CURVE SMOOTH",
"273 632 OFFCURVE",
"258 640 OFFCURVE",
"234 640 CURVE SMOOTH",
"195 640 OFFCURVE",
"185 624 OFFCURVE",
"185 591 CURVE SMOOTH",
"185 492 OFFCURVE",
"211 415 OFFCURVE",
"236 344 CURVE SMOOTH",
"261 272 OFFCURVE",
"279 218 OFFCURVE",
"279 144 CURVE SMOOTH",
"279 59 OFFCURVE",
"236 41 OFFCURVE",
"190 41 CURVE SMOOTH",
"138 41 OFFCURVE",
"97 64 OFFCURVE",
"76 76 CURVE SMOOTH",
"68 80 OFFCURVE",
"60 82 OFFCURVE",
"54 82 CURVE SMOOTH",
"34 82 OFFCURVE",
"20 54 OFFCURVE",
"20 34 CURVE SMOOTH",
"20 26 OFFCURVE",
"23 20 OFFCURVE",
"27 15 CURVE SMOOTH",
"48 -8 OFFCURVE",
"116 -35 OFFCURVE",
"194 -35 CURVE SMOOTH"
);
}
);
width = 427;
}
);
unicode = 1086E;
},
{
glyphname = u1086F;
lastChange = "2018-02-06 17:10:54 +0000";
layers = (
{
layerId = UUID0;
paths = (
{
closed = 1;
nodes = (
"539 -8 OFFCURVE",
"549 155 OFFCURVE",
"549 214 CURVE SMOOTH",
"549 311 OFFCURVE",
"502 369 OFFCURVE",
"456 425 CURVE SMOOTH",
"404 488 OFFCURVE",
"372 545 OFFCURVE",
"372 609 CURVE SMOOTH",
"372 636 OFFCURVE",
"352 640 OFFCURVE",
"323 640 CURVE SMOOTH",
"298 640 OFFCURVE",
"284 630 OFFCURVE",
"283 612 CURVE SMOOTH",
"280 563 OFFCURVE",
"261 513 OFFCURVE",
"225 461 CURVE",
"206 535 OFFCURVE",
"134 620 OFFCURVE",
"75 620 CURVE SMOOTH",
"55 620 OFFCURVE",
"35 600 OFFCURVE",
"35 578 CURVE SMOOTH",
"35 565 OFFCURVE",
"39 557 OFFCURVE",
"49 550 CURVE SMOOTH",
"114 505 OFFCURVE",
"147 469 OFFCURVE",
"163 391 CURVE SMOOTH",
"168 367 OFFCURVE",
"184 355 OFFCURVE",
"208 355 CURVE SMOOTH",
"251 355 OFFCURVE",
"294 410 OFFCURVE",
"326 479 CURVE",
"346 445 OFFCURVE",
"371 411 OFFCURVE",
"394 380 CURVE SMOOTH",
"432 329 OFFCURVE",
"461 280 OFFCURVE",
"461 214 CURVE SMOOTH",
"461 114 OFFCURVE",
"379 68 OFFCURVE",
"298 68 CURVE SMOOTH",
"186 68 OFFCURVE",
"130 97 OFFCURVE",
"101 114 CURVE SMOOTH",
"89 121 OFFCURVE",
"81 125 OFFCURVE",
"71 125 CURVE SMOOTH",
"52 125 OFFCURVE",
"36 103 OFFCURVE",
"36 77 CURVE SMOOTH",
"36 64 OFFCURVE",
"42 58 OFFCURVE",
"52 49 CURVE SMOOTH",
"74 29 OFFCURVE",
"153 -8 OFFCURVE",
"294 -8 CURVE SMOOTH"
);
}
);
width = 609;
}
);
unicode = 1086F;
},
{
glyphname = u10870;
lastChange = "2018-02-06 17:10:54 +0000";
layers = (
{
layerId = UUID0;
paths = (
{
closed = 1;
nodes = (
"101 -10 OFFCURVE",
"114 5 OFFCURVE",
"134 28 CURVE SMOOTH",
"234 143 OFFCURVE",
"389 383 OFFCURVE",
"459 561 CURVE SMOOTH",
"472 594 OFFCURVE",
"474 604 OFFCURVE",
"474 609 CURVE SMOOTH",
"474 634 OFFCURVE",
"449 640 OFFCURVE",
"432 640 CURVE SMOOTH",
"410 640 OFFCURVE",
"398 633 OFFCURVE",
"390 611 CURVE SMOOTH",
"372 563 OFFCURVE",
"346 503 OFFCURVE",
"310 437 CURVE",
"221 440 OFFCURVE",
"174 509 OFFCURVE",
"153 606 CURVE SMOOTH",
"147 634 OFFCURVE",
"131 640 OFFCURVE",
"105 640 CURVE SMOOTH",
"82 640 OFFCURVE",
"65 631 OFFCURVE",
"65 605 CURVE SMOOTH",
"65 545 OFFCURVE",
"130 385 OFFCURVE",
"270 365 CURVE",
"216 276 OFFCURVE",
"148 172 OFFCURVE",
"52 61 CURVE SMOOTH",
"39 46 OFFCURVE",
"29 33 OFFCURVE",
"29 19 CURVE SMOOTH",
"29 3 OFFCURVE",
"54 -10 OFFCURVE",
"79 -10 CURVE SMOOTH"
);
}
);
width = 534;
}
);
unicode = 10870;
},
{
glyphname = u10871;
lastChange = "2018-02-06 17:10:54 +0000";
layers = (
{
layerId = UUID0;
paths = (
{
closed = 1;
nodes = (
"479 -2 OFFCURVE",
"528 37 OFFCURVE",
"528 109 CURVE SMOOTH",
"528 129 OFFCURVE",
"522 151 OFFCURVE",
"509 197 CURVE SMOOTH",
"500 230 OFFCURVE",
"489 273 OFFCURVE",
"478 326 CURVE SMOOTH",
"466 384 OFFCURVE",
"458 467 OFFCURVE",
"455 552 CURVE SMOOTH",
"452 629 OFFCURVE",
"417 640 OFFCURVE",
"293 640 CURVE SMOOTH",
"230 640 OFFCURVE",
"199 637 OFFCURVE",
"165 631 CURVE SMOOTH",
"155 629 OFFCURVE",
"145 627 OFFCURVE",
"138 627 CURVE SMOOTH",
"125 627 OFFCURVE",
"120 630 OFFCURVE",
"113 635 CURVE SMOOTH",
"104 641 OFFCURVE",
"98 644 OFFCURVE",
"86 644 CURVE SMOOTH",
"67 644 OFFCURVE",
"44 632 OFFCURVE",
"44 604 CURVE SMOOTH",
"44 593 OFFCURVE",
"50 551 OFFCURVE",
"81 457 CURVE SMOOTH",
"118 344 OFFCURVE",
"133 337 OFFCURVE",
"161 337 CURVE SMOOTH",
"176 337 OFFCURVE",
"199 348 OFFCURVE",
"199 369 CURVE SMOOTH",
"199 389 OFFCURVE",
"190 412 OFFCURVE",
"179 440 CURVE SMOOTH",
"165 475 OFFCURVE",
"153 512 OFFCURVE",
"153 528 CURVE SMOOTH",
"153 553 OFFCURVE",
"174 564 OFFCURVE",
"246 564 CURVE SMOOTH",
"372 564 OFFCURVE",
"375 562 OFFCURVE",
"377 512 CURVE SMOOTH",
"379 460 OFFCURVE",
"384 383 OFFCURVE",
"398 311 CURVE SMOOTH",
"405 276 OFFCURVE",
"414 241 OFFCURVE",
"422 210 CURVE SMOOTH",
"432 173 OFFCURVE",
"440 142 OFFCURVE",
"440 126 CURVE SMOOTH",
"440 83 OFFCURVE",
"385 74 OFFCURVE",
"274 74 CURVE SMOOTH",
"215 74 OFFCURVE",
"136 80 OFFCURVE",
"93 85 CURVE SMOOTH",
"55 89 OFFCURVE",
"44 90 OFFCURVE",
"29 90 CURVE SMOOTH",
"7 90 OFFCURVE",
"0 75 OFFCURVE",
"0 57 CURVE SMOOTH",
"0 36 OFFCURVE",
"6 18 OFFCURVE",
"23 13 CURVE SMOOTH",
"64 2 OFFCURVE",
"203 -2 OFFCURVE",
"270 -2 CURVE SMOOTH"
);
}
);
width = 588;
}
);
unicode = 10871;
},
{
glyphname = u10872;
lastChange = "2018-02-06 17:10:54 +0000";
layers = (
{
layerId = UUID0;
paths = (
{
closed = 1;
nodes = (
"192 -126 OFFCURVE",
"230 -59 OFFCURVE",
"230 49 CURVE SMOOTH",
"230 127 OFFCURVE",
"219 215 OFFCURVE",
"206 306 CURVE",
"261 306 LINE SMOOTH",
"296 306 OFFCURVE",
"348 306 OFFCURVE",
"393 303 CURVE",
"399 164 OFFCURVE",
"432 77 OFFCURVE",
"535 77 CURVE SMOOTH",
"567 77 OFFCURVE",
"575 94 OFFCURVE",
"575 126 CURVE SMOOTH",
"575 140 OFFCURVE",
"570 151 OFFCURVE",
"555 151 CURVE SMOOTH",
"550 151 OFFCURVE",
"545 151 OFFCURVE",
"535 153 CURVE SMOOTH",
"484 163 OFFCURVE",
"476 256 OFFCURVE",
"476 383 CURVE SMOOTH",
"476 432 OFFCURVE",
"477 472 OFFCURVE",
"480 511 CURVE SMOOTH",
"484 567 OFFCURVE",
"486 598 OFFCURVE",
"486 615 CURVE SMOOTH",
"486 638 OFFCURVE",
"475 640 OFFCURVE",
"445 640 CURVE SMOOTH",
"419 640 OFFCURVE",
"411 635 OFFCURVE",
"406 620 CURVE SMOOTH",
"400 603 OFFCURVE",
"392 487 OFFCURVE",
"392 399 CURVE SMOOTH",
"392 375 LINE",
"350 377 OFFCURVE",
"303 378 OFFCURVE",
"270 378 CURVE SMOOTH",
"247 378 OFFCURVE",
"222 378 OFFCURVE",
"197 377 CURVE",
"187 453 OFFCURVE",
"180 530 OFFCURVE",
"180 607 CURVE SMOOTH",
"180 635 OFFCURVE",
"166 640 OFFCURVE",
"139 640 CURVE SMOOTH",
"105 640 OFFCURVE",
"92 630 OFFCURVE",
"92 607 CURVE SMOOTH",
"92 518 OFFCURVE",
"105 421 OFFCURVE",
"118 324 CURVE SMOOTH",
"131 230 OFFCURVE",
"142 135 OFFCURVE",
"142 49 CURVE SMOOTH",
"142 -13 OFFCURVE",
"137 -50 OFFCURVE",
"91 -50 CURVE SMOOTH",
"73 -50 OFFCURVE",
"57 -43 OFFCURVE",
"42 -36 CURVE SMOOTH",
"29 -30 OFFCURVE",
"16 -25 OFFCURVE",
"6 -25 CURVE SMOOTH",
"-15 -25 OFFCURVE",
"-30 -46 OFFCURVE",
"-30 -65 CURVE SMOOTH",
"-30 -102 OFFCURVE",
"37 -126 OFFCURVE",
"90 -126 CURVE SMOOTH"
);
}
);
width = 595;
}
);
unicode = 10872;
},
{
glyphname = u10873;
lastChange = "2018-02-06 17:10:54 +0000";
layers = (
{
layerId = UUID0;
paths = (
{
closed = 1;
nodes = (
"141 -26 OFFCURVE",
"199 37 OFFCURVE",
"199 138 CURVE SMOOTH",
"199 193 OFFCURVE",
"191 246 OFFCURVE",
"181 308 CURVE SMOOTH",
"173 359 OFFCURVE",
"164 417 OFFCURVE",
"158 501 CURVE",
"199 460 OFFCURVE",
"271 440 OFFCURVE",
"342 440 CURVE SMOOTH",
"426 440 OFFCURVE",
"514 462 OFFCURVE",
"565 513 CURVE",
"577 400 OFFCURVE",
"602 322 OFFCURVE",
"622 261 CURVE SMOOTH",
"637 214 OFFCURVE",
"649 176 OFFCURVE",
"649 146 CURVE SMOOTH",
"649 95 OFFCURVE",
"626 66 OFFCURVE",
"582 66 CURVE SMOOTH",
"553 66 OFFCURVE",
"532 79 OFFCURVE",
"515 90 CURVE SMOOTH",
"505 97 OFFCURVE",
"496 102 OFFCURVE",
"486 102 CURVE SMOOTH",
"465 102 OFFCURVE",
"445 80 OFFCURVE",
"445 58 CURVE SMOOTH",
"445 27 OFFCURVE",
"500 -10 OFFCURVE",
"577 -10 CURVE SMOOTH",
"661 -10 OFFCURVE",
"737 39 OFFCURVE",
"737 142 CURVE SMOOTH",
"737 189 OFFCURVE",
"721 236 OFFCURVE",
"703 286 CURVE SMOOTH",
"670 378 OFFCURVE",
"645 452 OFFCURVE",
"645 605 CURVE SMOOTH",
"645 631 OFFCURVE",
"623 640 OFFCURVE",
"605 640 CURVE SMOOTH",
"587 640 OFFCURVE",
"577 629 OFFCURVE",
"560 608 CURVE SMOOTH",
"529 570 OFFCURVE",
"482 514 OFFCURVE",
"337 514 CURVE SMOOTH",
"241 514 OFFCURVE",
"203 556 OFFCURVE",
"171 595 CURVE SMOOTH",
"151 620 OFFCURVE",
"133 640 OFFCURVE",
"104 640 CURVE SMOOTH",
"79 640 OFFCURVE",
"67 627 OFFCURVE",
"67 605 CURVE SMOOTH",
"67 492 OFFCURVE",
"81 391 OFFCURVE",
"94 304 CURVE SMOOTH",
"104 240 OFFCURVE",
"111 185 OFFCURVE",
"111 139 CURVE SMOOTH",
"111 77 OFFCURVE",
"98 62 OFFCURVE",
"72 42 CURVE SMOOTH",
"56 30 OFFCURVE",
"50 22 OFFCURVE",
"50 10 CURVE SMOOTH",
"50 -8 OFFCURVE",
"71 -26 OFFCURVE",
"96 -26 CURVE SMOOTH"
);
}
);
width = 777;
}
);
unicode = 10873;
},
{
glyphname = u10874;
lastChange = "2018-02-06 17:10:54 +0000";
layers = (
{
components = (
{
name = u10863;
}
);
layerId = UUID0;
paths = (
{
closed = 1;
nodes = (
"268 610 OFFCURVE",
"296 637 OFFCURVE",
"296 670 CURVE SMOOTH",
"296 697 OFFCURVE",
"279 721 OFFCURVE",
"246 721 CURVE SMOOTH",
"208 721 OFFCURVE",
"185 697 OFFCURVE",
"185 661 CURVE SMOOTH",
"185 631 OFFCURVE",
"203 610 OFFCURVE",
"234 610 CURVE SMOOTH"
);
}
);
width = 632;
}
);
unicode = 10874;
},
{
glyphname = u10875;
lastChange = "2018-02-06 17:10:54 +0000";
layers = (
{
layerId = UUID0;
paths = (
{
closed = 1;
nodes = (
"350 -12 OFFCURVE",
"601 181 OFFCURVE",
"702 289 CURVE SMOOTH",
"717 305 OFFCURVE",
"728 321 OFFCURVE",
"728 334 CURVE SMOOTH",
"728 356 OFFCURVE",
"704 379 OFFCURVE",
"682 379 CURVE SMOOTH",
"670 379 OFFCURVE",
"661 374 OFFCURVE",
"645 358 CURVE SMOOTH",
"538 251 OFFCURVE",
"334 86 OFFCURVE",
"250 86 CURVE SMOOTH",
"229 86 OFFCURVE",
"223 107 OFFCURVE",
"188 255 CURVE SMOOTH",
"184 272 OFFCURVE",
"181 284 OFFCURVE",
"178 296 CURVE",
"329 358 OFFCURVE",
"430 495 OFFCURVE",
"430 527 CURVE SMOOTH",
"430 550 OFFCURVE",
"410 558 OFFCURVE",
"382 558 CURVE SMOOTH",
"365 558 OFFCURVE",
"352 552 OFFCURVE",
"341 533 CURVE SMOOTH",
"307 474 OFFCURVE",
"232 406 OFFCURVE",
"159 372 CURVE",
"144 430 OFFCURVE",
"131 480 OFFCURVE",
"109 558 CURVE SMOOTH",
"90 627 OFFCURVE",
"81 640 OFFCURVE",
"40 640 CURVE SMOOTH",
"15 640 OFFCURVE",
"2 630 OFFCURVE",
"2 613 CURVE SMOOTH",
"2 599 OFFCURVE",
"7 583 OFFCURVE",
"15 558 CURVE SMOOTH",
"50 447 OFFCURVE",
"69 367 OFFCURVE",
"99 238 CURVE SMOOTH",
"142 55 OFFCURVE",
"158 -12 OFFCURVE",
"210 -12 CURVE SMOOTH"
);
}
);
width = 768;
}
);
unicode = 10875;
},
{
glyphname = u10876;
lastChange = "2018-02-06 17:10:54 +0000";
layers = (
{
layerId = UUID0;
paths = (
{
closed = 1;
nodes = (
"269 -12 OFFCURVE",
"304 53 OFFCURVE",
"304 119 CURVE SMOOTH",
"304 166 OFFCURVE",
"290 226 OFFCURVE",
"275 288 CURVE",
"310 339 OFFCURVE",
"379 409 OFFCURVE",
"433 409 CURVE SMOOTH",
"500 409 OFFCURVE",
"515 319 OFFCURVE",
"543 157 CURVE SMOOTH",
"557 75 OFFCURVE",
"562 49 OFFCURVE",
"593 49 CURVE SMOOTH",
"621 49 OFFCURVE",
"644 57 OFFCURVE",
"644 82 CURVE SMOOTH",
"644 90 OFFCURVE",
"643 99 OFFCURVE",
"640 114 CURVE SMOOTH",
"630 166 OFFCURVE",
"619 222 OFFCURVE",
"608 277 CURVE SMOOTH",
"589 374 OFFCURVE",
"565 485 OFFCURVE",
"439 485 CURVE SMOOTH",
"373 485 OFFCURVE",
"303 434 OFFCURVE",
"254 377 CURVE",
"234 450 OFFCURVE",
"218 528 OFFCURVE",
"214 608 CURVE SMOOTH",
"213 631 OFFCURVE",
"202 640 OFFCURVE",
"175 640 CURVE SMOOTH",
"138 640 OFFCURVE",
"125 627 OFFCURVE",
"125 602 CURVE SMOOTH",
"125 548 OFFCURVE",
"148 446 OFFCURVE",
"173 347 CURVE SMOOTH",
"196 255 OFFCURVE",
"216 166 OFFCURVE",
"216 121 CURVE SMOOTH",
"216 77 OFFCURVE",
"183 64 OFFCURVE",
"157 64 CURVE SMOOTH",
"128 64 OFFCURVE",
"105 77 OFFCURVE",
"92 87 CURVE SMOOTH",
"83 94 OFFCURVE",
"76 98 OFFCURVE",
"67 98 CURVE SMOOTH",
"49 98 OFFCURVE",
"30 77 OFFCURVE",
"30 55 CURVE SMOOTH",
"30 22 OFFCURVE",
"78 -12 OFFCURVE",
"153 -12 CURVE SMOOTH"
);
}
);
width = 684;
}
);
unicode = 10876;
},
{
glyphname = u10877;
lastChange = "2018-02-06 17:10:54 +0000";
layers = (
{
layerId = UUID0;
paths = (
{
closed = 1;
nodes = (
"508 100 OFFCURVE",
"581 136 OFFCURVE",
"581 225 CURVE SMOOTH",
"581 232 OFFCURVE",
"580 240 OFFCURVE",
"578 247 CURVE",
"606 227 OFFCURVE",
"640 213 OFFCURVE",
"686 213 CURVE SMOOTH",
"768 213 OFFCURVE",
"822 275 OFFCURVE",
"822 354 CURVE SMOOTH",
"822 394 OFFCURVE",
"807 411 OFFCURVE",
"757 411 CURVE SMOOTH",
"740 411 OFFCURVE",
"732 404 OFFCURVE",
"732 391 CURVE SMOOTH",
"732 386 OFFCURVE",
"733 379 OFFCURVE",
"734 372 CURVE SMOOTH",
"735 366 OFFCURVE",
"736 359 OFFCURVE",
"736 352 CURVE SMOOTH",
"736 309 OFFCURVE",
"710 279 OFFCURVE",
"669 279 CURVE SMOOTH",
"625 279 OFFCURVE",
"576 308 OFFCURVE",
"560 344 CURVE",
"572 363 OFFCURVE",
"581 386 OFFCURVE",
"581 410 CURVE SMOOTH",
"581 488 OFFCURVE",
"509 535 OFFCURVE",
"442 535 CURVE SMOOTH",
"376 535 OFFCURVE",
"329 503 OFFCURVE",
"312 450 CURVE",
"299 455 OFFCURVE",
"284 458 OFFCURVE",
"266 458 CURVE SMOOTH",
"196 458 OFFCURVE",
"135 396 OFFCURVE",
"41 291 CURVE SMOOTH",
"26 274 OFFCURVE",
"17 263 OFFCURVE",
"17 253 CURVE SMOOTH",
"17 243 OFFCURVE",
"27 238 OFFCURVE",
"43 231 CURVE SMOOTH",
"89 211 OFFCURVE",
"171 188 OFFCURVE",
"253 188 CURVE SMOOTH",
"270 188 OFFCURVE",
"291 190 OFFCURVE",
"309 194 CURVE",
"323 136 OFFCURVE",
"371 100 OFFCURVE",
"437 100 CURVE SMOOTH"
);
},
{
closed = 1;
nodes = (
"400 166 OFFCURVE",
"369 191 OFFCURVE",
"369 235 CURVE SMOOTH",
"369 257 OFFCURVE",
"362 274 OFFCURVE",
"342 274 CURVE SMOOTH",
"334 274 OFFCURVE",
"326 271 OFFCURVE",
"319 267 CURVE SMOOTH",
"307 260 OFFCURVE",
"287 254 OFFCURVE",
"259 254 CURVE SMOOTH",
"219 254 OFFCURVE",
"159 262 OFFCURVE",
"118 279 CURVE",
"140 295 OFFCURVE",
"160 314 OFFCURVE",
"184 341 CURVE SMOOTH",
"211 371 OFFCURVE",
"238 392 OFFCURVE",
"265 392 CURVE SMOOTH",
"289 392 OFFCURVE",
"304 384 OFFCURVE",
"317 373 CURVE SMOOTH",
"326 366 OFFCURVE",
"334 361 OFFCURVE",
"345 361 CURVE SMOOTH",
"363 361 OFFCURVE",
"369 381 OFFCURVE",
"369 402 CURVE SMOOTH",
"369 440 OFFCURVE",
"395 469 OFFCURVE",
"438 469 CURVE SMOOTH",
"475 469 OFFCURVE",
"508 445 OFFCURVE",
"508 401 CURVE SMOOTH",
"508 357 OFFCURVE",
"476 340 OFFCURVE",
"450 330 CURVE SMOOTH",
"440 326 OFFCURVE",
"432 322 OFFCURVE",
"432 317 CURVE SMOOTH",
"432 312 OFFCURVE",
"439 310 OFFCURVE",
"450 307 CURVE SMOOTH",
"472 300 OFFCURVE",
"508 287 OFFCURVE",
"508 235 CURVE SMOOTH",
"508 188 OFFCURVE",
"473 166 OFFCURVE",
"438 166 CURVE SMOOTH"
);
}
);
width = 852;
}
);
unicode = 10877;
},
{
glyphname = u10878;
lastChange = "2018-02-06 17:10:54 +0000";
layers = (
{
layerId = UUID0;
paths = (
{
closed = 1;
nodes = (
"476 100 OFFCURVE",
"523 132 OFFCURVE",
"540 185 CURVE",
"553 180 OFFCURVE",
"568 177 OFFCURVE",
"586 177 CURVE SMOOTH",
"656 177 OFFCURVE",
"718 238 OFFCURVE",
"811 344 CURVE SMOOTH",
"826 361 OFFCURVE",
"835 372 OFFCURVE",
"835 382 CURVE SMOOTH",
"835 392 OFFCURVE",
"825 397 OFFCURVE",
"809 404 CURVE SMOOTH",
"763 424 OFFCURVE",
"681 447 OFFCURVE",
"599 447 CURVE SMOOTH",
"582 447 OFFCURVE",
"561 445 OFFCURVE",
"543 441 CURVE",
"529 499 OFFCURVE",
"481 535 OFFCURVE",
"415 535 CURVE SMOOTH",
"344 535 OFFCURVE",
"271 499 OFFCURVE",
"271 410 CURVE SMOOTH",
"271 403 OFFCURVE",
"272 395 OFFCURVE",
"274 388 CURVE",
"246 408 OFFCURVE",
"212 422 OFFCURVE",
"166 422 CURVE SMOOTH",
"84 422 OFFCURVE",
"30 360 OFFCURVE",
"30 281 CURVE SMOOTH",
"30 241 OFFCURVE",
"45 224 OFFCURVE",
"95 224 CURVE SMOOTH",
"112 224 OFFCURVE",
"120 231 OFFCURVE",
"120 244 CURVE SMOOTH",
"120 249 OFFCURVE",
"119 256 OFFCURVE",
"118 263 CURVE SMOOTH",
"117 269 OFFCURVE",
"116 276 OFFCURVE",
"116 283 CURVE SMOOTH",
"116 326 OFFCURVE",
"142 356 OFFCURVE",
"183 356 CURVE SMOOTH",
"227 356 OFFCURVE",
"276 327 OFFCURVE",
"292 291 CURVE",
"280 272 OFFCURVE",
"271 249 OFFCURVE",
"271 225 CURVE SMOOTH",
"271 147 OFFCURVE",
"343 100 OFFCURVE",
"410 100 CURVE SMOOTH"
);
},
{
closed = 1;
nodes = (
"377 166 OFFCURVE",
"344 190 OFFCURVE",
"344 234 CURVE SMOOTH",
"344 278 OFFCURVE",
"376 295 OFFCURVE",
"402 305 CURVE SMOOTH",
"412 309 OFFCURVE",
"420 313 OFFCURVE",
"420 318 CURVE SMOOTH",
"420 323 OFFCURVE",
"413 325 OFFCURVE",
"402 328 CURVE SMOOTH",
"380 334 OFFCURVE",
"344 348 OFFCURVE",
"344 400 CURVE SMOOTH",
"344 447 OFFCURVE",
"379 469 OFFCURVE",
"414 469 CURVE SMOOTH",
"452 469 OFFCURVE",
"483 444 OFFCURVE",
"483 400 CURVE SMOOTH",
"483 378 OFFCURVE",
"490 361 OFFCURVE",
"510 361 CURVE SMOOTH",
"518 361 OFFCURVE",
"526 364 OFFCURVE",
"533 368 CURVE SMOOTH",
"545 375 OFFCURVE",
"565 381 OFFCURVE",
"593 381 CURVE SMOOTH",
"633 381 OFFCURVE",
"693 373 OFFCURVE",
"734 356 CURVE",
"712 340 OFFCURVE",
"692 321 OFFCURVE",
"668 294 CURVE SMOOTH",
"641 264 OFFCURVE",
"614 243 OFFCURVE",
"587 243 CURVE SMOOTH",
"563 243 OFFCURVE",
"548 252 OFFCURVE",
"535 262 CURVE SMOOTH",
"526 269 OFFCURVE",
"518 274 OFFCURVE",
"507 274 CURVE SMOOTH",
"489 274 OFFCURVE",
"483 254 OFFCURVE",
"483 233 CURVE SMOOTH",
"483 195 OFFCURVE",
"457 166 OFFCURVE",
"414 166 CURVE SMOOTH"
);
}
);
width = 852;
}
);
unicode = 10878;
},
{
glyphname = u10879;
lastChange = "2018-02-06 17:10:54 +0000";
layers = (
{
layerId = UUID0;
paths = (
{
closed = 1;
nodes = (
"113 -53 OFFCURVE",
"132 -41 OFFCURVE",
"150 -9 CURVE SMOOTH",
"202 83 OFFCURVE",
"213 177 OFFCURVE",
"220 404 CURVE SMOOTH",
"222 470 OFFCURVE",
"222 538 OFFCURVE",
"222 610 CURVE SMOOTH",
"222 638 OFFCURVE",
"202 640 OFFCURVE",
"174 640 CURVE SMOOTH",
"149 640 OFFCURVE",
"130 632 OFFCURVE",
"130 609 CURVE SMOOTH",
"130 588 OFFCURVE",
"131 563 OFFCURVE",
"133 519 CURVE SMOOTH",
"135 481 OFFCURVE",
"137 441 OFFCURVE",
"137 415 CURVE SMOOTH",
"137 223 OFFCURVE",
"126 81 OFFCURVE",
"66 11 CURVE SMOOTH",
"54 -3 OFFCURVE",
"50 -12 OFFCURVE",
"50 -22 CURVE SMOOTH",
"50 -37 OFFCURVE",
"65 -53 OFFCURVE",
"95 -53 CURVE SMOOTH"
);
}
);
width = 325;
}
);
unicode = 10879;
},
{
glyphname = u1087A;
lastChange = "2018-02-06 17:10:54 +0000";
layers = (
{
layerId = UUID0;
paths = (
{
closed = 1;
nodes = (
"113 -53 OFFCURVE",
"132 -41 OFFCURVE",
"150 -9 CURVE SMOOTH",
"202 83 OFFCURVE",
"213 177 OFFCURVE",
"220 404 CURVE SMOOTH",
"222 470 OFFCURVE",
"222 538 OFFCURVE",
"222 610 CURVE SMOOTH",
"222 638 OFFCURVE",
"202 640 OFFCURVE",
"174 640 CURVE SMOOTH",
"149 640 OFFCURVE",
"130 632 OFFCURVE",
"130 609 CURVE SMOOTH",
"130 588 OFFCURVE",
"131 563 OFFCURVE",
"133 519 CURVE SMOOTH",
"135 481 OFFCURVE",
"137 441 OFFCURVE",
"137 415 CURVE SMOOTH",
"137 223 OFFCURVE",
"126 81 OFFCURVE",
"66 11 CURVE SMOOTH",
"54 -3 OFFCURVE",
"50 -12 OFFCURVE",
"50 -22 CURVE SMOOTH",
"50 -37 OFFCURVE",
"65 -53 OFFCURVE",
"95 -53 CURVE SMOOTH"
);
},
{
closed = 1;
nodes = (
"358 64 OFFCURVE",
"373 82 OFFCURVE",
"384 117 CURVE SMOOTH",
"404 181 OFFCURVE",
"421 241 OFFCURVE",
"423 404 CURVE SMOOTH",
"424 470 OFFCURVE",
"425 538 OFFCURVE",
"425 610 CURVE SMOOTH",
"425 638 OFFCURVE",
"405 640 OFFCURVE",
"377 640 CURVE SMOOTH",
"352 640 OFFCURVE",
"333 632 OFFCURVE",
"333 609 CURVE SMOOTH",
"333 588 OFFCURVE",
"334 563 OFFCURVE",
"336 519 CURVE SMOOTH",
"338 481 OFFCURVE",
"340 441 OFFCURVE",
"340 415 CURVE SMOOTH",
"340 279 OFFCURVE",
"330 196 OFFCURVE",
"306 137 CURVE SMOOTH",
"299 120 OFFCURVE",
"297 105 OFFCURVE",
"297 95 CURVE SMOOTH",
"297 80 OFFCURVE",
"310 64 OFFCURVE",
"340 64 CURVE SMOOTH"
);
}
);
width = 528;
}
);
unicode = 1087A;
},
{
glyphname = u1087B;
lastChange = "2018-02-06 17:10:54 +0000";
layers = (
{
layerId = UUID0;
paths = (
{
closed = 1;
nodes = (
"113 -53 OFFCURVE",
"132 -41 OFFCURVE",
"150 -9 CURVE SMOOTH",
"202 83 OFFCURVE",
"213 177 OFFCURVE",
"220 404 CURVE SMOOTH",
"222 470 OFFCURVE",
"222 538 OFFCURVE",
"222 610 CURVE SMOOTH",
"222 638 OFFCURVE",
"202 640 OFFCURVE",
"174 640 CURVE SMOOTH",
"149 640 OFFCURVE",
"130 632 OFFCURVE",
"130 609 CURVE SMOOTH",
"130 588 OFFCURVE",
"131 563 OFFCURVE",
"133 519 CURVE SMOOTH",
"135 481 OFFCURVE",
"137 441 OFFCURVE",
"137 415 CURVE SMOOTH",
"137 223 OFFCURVE",
"126 81 OFFCURVE",
"66 11 CURVE SMOOTH",
"54 -3 OFFCURVE",
"50 -12 OFFCURVE",
"50 -22 CURVE SMOOTH",
"50 -37 OFFCURVE",
"65 -53 OFFCURVE",
"95 -53 CURVE SMOOTH"
);
},
{
closed = 1;
nodes = (
"358 64 OFFCURVE",
"373 82 OFFCURVE",
"384 117 CURVE SMOOTH",
"404 181 OFFCURVE",
"421 241 OFFCURVE",
"423 404 CURVE SMOOTH",
"424 470 OFFCURVE",
"425 538 OFFCURVE",
"425 610 CURVE SMOOTH",
"425 638 OFFCURVE",
"405 640 OFFCURVE",
"377 640 CURVE SMOOTH",
"352 640 OFFCURVE",
"333 632 OFFCURVE",
"333 609 CURVE SMOOTH",
"333 588 OFFCURVE",
"334 563 OFFCURVE",
"336 519 CURVE SMOOTH",
"338 481 OFFCURVE",
"340 441 OFFCURVE",
"340 415 CURVE SMOOTH",
"340 279 OFFCURVE",
"330 196 OFFCURVE",
"306 137 CURVE SMOOTH",
"299 120 OFFCURVE",
"297 105 OFFCURVE",
"297 95 CURVE SMOOTH",
"297 80 OFFCURVE",
"310 64 OFFCURVE",
"340 64 CURVE SMOOTH"
);
},
{
closed = 1;
nodes = (
"558 64 OFFCURVE",
"573 82 OFFCURVE",
"584 117 CURVE SMOOTH",
"604 181 OFFCURVE",
"621 241 OFFCURVE",
"623 404 CURVE SMOOTH",
"624 470 OFFCURVE",
"625 538 OFFCURVE",
"625 610 CURVE SMOOTH",
"625 638 OFFCURVE",
"605 640 OFFCURVE",
"577 640 CURVE SMOOTH",
"552 640 OFFCURVE",
"533 632 OFFCURVE",
"533 609 CURVE SMOOTH",
"533 588 OFFCURVE",
"534 563 OFFCURVE",
"536 519 CURVE SMOOTH",
"538 481 OFFCURVE",
"540 441 OFFCURVE",
"540 415 CURVE SMOOTH",
"540 279 OFFCURVE",
"530 196 OFFCURVE",
"506 137 CURVE SMOOTH",
"499 120 OFFCURVE",
"497 105 OFFCURVE",
"497 95 CURVE SMOOTH",
"497 80 OFFCURVE",
"510 64 OFFCURVE",
"540 64 CURVE SMOOTH"
);
}
);
width = 728;
}
);
unicode = 1087B;
},
{
glyphname = u1087C;
lastChange = "2018-02-06 17:10:54 +0000";
layers = (
{
layerId = UUID0;
paths = (
{
closed = 1;
nodes = (
"113 -53 OFFCURVE",
"132 -41 OFFCURVE",
"150 -9 CURVE SMOOTH",
"202 83 OFFCURVE",
"213 177 OFFCURVE",
"220 404 CURVE SMOOTH",
"222 470 OFFCURVE",
"222 538 OFFCURVE",
"222 610 CURVE SMOOTH",
"222 638 OFFCURVE",
"202 640 OFFCURVE",
"174 640 CURVE SMOOTH",
"149 640 OFFCURVE",
"130 632 OFFCURVE",
"130 609 CURVE SMOOTH",
"130 588 OFFCURVE",
"131 563 OFFCURVE",
"133 519 CURVE SMOOTH",
"135 481 OFFCURVE",
"137 441 OFFCURVE",
"137 415 CURVE SMOOTH",
"137 223 OFFCURVE",
"126 81 OFFCURVE",
"66 11 CURVE SMOOTH",
"54 -3 OFFCURVE",
"50 -12 OFFCURVE",
"50 -22 CURVE SMOOTH",
"50 -37 OFFCURVE",
"65 -53 OFFCURVE",
"95 -53 CURVE SMOOTH"
);
},
{
closed = 1;
nodes = (
"358 64 OFFCURVE",
"373 82 OFFCURVE",
"384 117 CURVE SMOOTH",
"404 181 OFFCURVE",
"421 241 OFFCURVE",
"423 404 CURVE SMOOTH",
"424 470 OFFCURVE",
"425 538 OFFCURVE",
"425 610 CURVE SMOOTH",
"425 638 OFFCURVE",
"405 640 OFFCURVE",
"377 640 CURVE SMOOTH",
"352 640 OFFCURVE",
"333 632 OFFCURVE",
"333 609 CURVE SMOOTH",
"333 588 OFFCURVE",
"334 563 OFFCURVE",
"336 519 CURVE SMOOTH",
"338 481 OFFCURVE",
"340 441 OFFCURVE",
"340 415 CURVE SMOOTH",
"340 279 OFFCURVE",
"330 196 OFFCURVE",
"306 137 CURVE SMOOTH",
"299 120 OFFCURVE",
"297 105 OFFCURVE",
"297 95 CURVE SMOOTH",
"297 80 OFFCURVE",
"310 64 OFFCURVE",
"340 64 CURVE SMOOTH"
);
},
{
closed = 1;
nodes = (
"558 64 OFFCURVE",
"573 82 OFFCURVE",
"584 117 CURVE SMOOTH",
"604 181 OFFCURVE",
"621 241 OFFCURVE",
"623 404 CURVE SMOOTH",
"624 470 OFFCURVE",
"625 538 OFFCURVE",
"625 610 CURVE SMOOTH",
"625 638 OFFCURVE",
"605 640 OFFCURVE",
"577 640 CURVE SMOOTH",
"552 640 OFFCURVE",
"533 632 OFFCURVE",
"533 609 CURVE SMOOTH",
"533 588 OFFCURVE",
"534 563 OFFCURVE",
"536 519 CURVE SMOOTH",
"538 481 OFFCURVE",
"540 441 OFFCURVE",
"540 415 CURVE SMOOTH",
"540 279 OFFCURVE",
"530 196 OFFCURVE",
"506 137 CURVE SMOOTH",
"499 120 OFFCURVE",
"497 105 OFFCURVE",
"497 95 CURVE SMOOTH",
"497 80 OFFCURVE",
"510 64 OFFCURVE",
"540 64 CURVE SMOOTH"
);
},
{
closed = 1;
nodes = (
"758 64 OFFCURVE",
"773 82 OFFCURVE",
"784 117 CURVE SMOOTH",
"804 181 OFFCURVE",
"821 241 OFFCURVE",
"823 404 CURVE SMOOTH",
"824 470 OFFCURVE",
"825 538 OFFCURVE",
"825 610 CURVE SMOOTH",
"825 638 OFFCURVE",
"805 640 OFFCURVE",
"777 640 CURVE SMOOTH",
"752 640 OFFCURVE",
"733 632 OFFCURVE",
"733 609 CURVE SMOOTH",
"733 588 OFFCURVE",
"734 563 OFFCURVE",
"736 519 CURVE SMOOTH",
"738 481 OFFCURVE",
"740 441 OFFCURVE",
"740 415 CURVE SMOOTH",
"740 279 OFFCURVE",
"730 196 OFFCURVE",
"706 137 CURVE SMOOTH",
"699 120 OFFCURVE",
"697 105 OFFCURVE",
"697 95 CURVE SMOOTH",
"697 80 OFFCURVE",
"710 64 OFFCURVE",
"740 64 CURVE SMOOTH"
);
}
);
width = 928;
}
);
unicode = 1087C;
},
{
glyphname = u1087D;
lastChange = "2018-02-06 17:10:54 +0000";
layers = (
{
layerId = UUID0;
paths = (
{
closed = 1;
nodes = (
"117 -10 OFFCURVE",
"134 -2 OFFCURVE",
"151 22 CURVE SMOOTH",
"222 123 OFFCURVE",
"506 536 OFFCURVE",
"506 611 CURVE SMOOTH",
"506 634 OFFCURVE",
"484 640 OFFCURVE",
"465 640 CURVE SMOOTH",
"443 640 OFFCURVE",
"432 631 OFFCURVE",
"424 615 CURVE SMOOTH",
"387 542 LINE SMOOTH",
"362 492 OFFCURVE",
"337 472 OFFCURVE",
"292 472 CURVE SMOOTH",
"205 472 OFFCURVE",
"177 533 OFFCURVE",
"153 612 CURVE SMOOTH",
"146 635 OFFCURVE",
"133 640 OFFCURVE",
"108 640 CURVE SMOOTH",
"85 640 OFFCURVE",
"66 631 OFFCURVE",
"66 605 CURVE SMOOTH",
"66 577 OFFCURVE",
"107 398 OFFCURVE",
"279 398 CURVE SMOOTH",
"287 398 OFFCURVE",
"296 398 OFFCURVE",
"304 399 CURVE",
"246 307 OFFCURVE",
"162 177 OFFCURVE",
"72 60 CURVE SMOOTH",
"59 43 OFFCURVE",
"50 31 OFFCURVE",
"50 19 CURVE SMOOTH",
"50 -2 OFFCURVE",
"74 -10 OFFCURVE",
"100 -10 CURVE SMOOTH"
);
}
);
width = 560;
}
);
unicode = 1087D;
},
{
glyphname = u1087E;
lastChange = "2018-02-06 17:10:54 +0000";
layers = (
{
layerId = UUID0;
paths = (
{
closed = 1;
nodes = (
"867 95 OFFCURVE",
"878 115 OFFCURVE",
"878 132 CURVE SMOOTH",
"878 148 OFFCURVE",
"873 155 OFFCURVE",
"864 161 CURVE SMOOTH",
"856 166 OFFCURVE",
"851 171 OFFCURVE",
"851 177 CURVE SMOOTH",
"851 187 OFFCURVE",
"858 192 OFFCURVE",
"871 192 CURVE SMOOTH",
"882 192 OFFCURVE",
"897 190 OFFCURVE",
"911 187 CURVE SMOOTH",
"929 183 OFFCURVE",
"947 181 OFFCURVE",
"971 181 CURVE SMOOTH",
"1062 181 OFFCURVE",
"1115 230 OFFCURVE",
"1115 320 CURVE SMOOTH",
"1115 384 OFFCURVE",
"1075 448 OFFCURVE",
"949 448 CURVE SMOOTH",
"289 448 LINE SMOOTH",
"170 448 OFFCURVE",
"106 446 OFFCURVE",
"42 437 CURVE SMOOTH",
"14 433 OFFCURVE",
"6 407 OFFCURVE",
"6 383 CURVE SMOOTH",
"6 373 OFFCURVE",
"10 356 OFFCURVE",
"34 356 CURVE SMOOTH",
"44 356 OFFCURVE",
"58 357 OFFCURVE",
"84 360 CURVE SMOOTH",
"138 366 OFFCURVE",
"203 373 OFFCURVE",
"280 373 CURVE SMOOTH",
"959 373 LINE SMOOTH",
"1017 373 OFFCURVE",
"1043 346 OFFCURVE",
"1043 312 CURVE SMOOTH",
"1043 273 OFFCURVE",
"1008 252 OFFCURVE",
"971 252 CURVE SMOOTH",
"949 252 OFFCURVE",
"930 254 OFFCURVE",
"909 258 CURVE SMOOTH",
"891 261 OFFCURVE",
"872 263 OFFCURVE",
"853 263 CURVE SMOOTH",
"802 263 OFFCURVE",
"762 232 OFFCURVE",
"762 183 CURVE SMOOTH",
"762 126 OFFCURVE",
"805 95 OFFCURVE",
"843 95 CURVE SMOOTH"
);
}
);
width = 1150;
}
);
unicode = 1087E;
},
{
glyphname = u1087F;
lastChange = "2018-02-06 17:10:54 +0000";
layers = (
{
layerId = UUID0;
paths = (
{
closed = 1;
nodes = (
"370 -10 OFFCURVE",
"449 55 OFFCURVE",
"449 166 CURVE SMOOTH",
"449 254 OFFCURVE",
"392 311 OFFCURVE",
"329 326 CURVE",
"372 358 OFFCURVE",
"413 406 OFFCURVE",
"413 487 CURVE SMOOTH",
"413 613 OFFCURVE",
"325 640 OFFCURVE",
"257 640 CURVE SMOOTH",
"163 640 OFFCURVE",
"100 589 OFFCURVE",
"100 510 CURVE SMOOTH",
"100 445 OFFCURVE",
"146 406 OFFCURVE",
"195 406 CURVE SMOOTH",
"220 406 OFFCURVE",
"230 424 OFFCURVE",
"230 445 CURVE SMOOTH",
"230 461 OFFCURVE",
"223 467 OFFCURVE",
"210 474 CURVE SMOOTH",
"194 482 OFFCURVE",
"184 493 OFFCURVE",
"184 513 CURVE SMOOTH",
"184 549 OFFCURVE",
"218 564 OFFCURVE",
"257 564 CURVE SMOOTH",
"296 564 OFFCURVE",
"335 545 OFFCURVE",
"335 487 CURVE SMOOTH",
"335 424 OFFCURVE",
"304 396 OFFCURVE",
"261 358 CURVE SMOOTH",
"243 342 OFFCURVE",
"236 333 OFFCURVE",
"236 318 CURVE SMOOTH",
"236 298 OFFCURVE",
"255 287 OFFCURVE",
"276 278 CURVE SMOOTH",
"320 259 OFFCURVE",
"361 225 OFFCURVE",
"361 166 CURVE SMOOTH",
"361 117 OFFCURVE",
"335 66 OFFCURVE",
"249 66 CURVE SMOOTH",
"178 66 OFFCURVE",
"152 90 OFFCURVE",
"152 121 CURVE SMOOTH",
"152 125 OFFCURVE",
"152 127 OFFCURVE",
"153 132 CURVE SMOOTH",
"154 136 OFFCURVE",
"155 140 OFFCURVE",
"155 143 CURVE SMOOTH",
"155 157 OFFCURVE",
"147 163 OFFCURVE",
"128 163 CURVE SMOOTH",
"81 163 OFFCURVE",
"66 142 OFFCURVE",
"66 117 CURVE SMOOTH",
"66 57 OFFCURVE",
"109 -10 OFFCURVE",
"245 -10 CURVE SMOOTH"
);
}
);
width = 509;
}
);
unicode = 1087F;
},
{
glyphname = u1086E10876;
lastChange = "2018-02-06 17:10:54 +0000";
layers = (
{
layerId = UUID0;
paths = (
{
closed = 1;
nodes = (
"835 -35 OFFCURVE",
"907 23 OFFCURVE",
"907 149 CURVE SMOOTH",
"907 231 OFFCURVE",
"888 286 OFFCURVE",
"864 353 CURVE SMOOTH",
"839 424 OFFCURVE",
"813 500 OFFCURVE",
"813 609 CURVE SMOOTH",
"813 633 OFFCURVE",
"796 640 OFFCURVE",
"774 640 CURVE SMOOTH",
"735 640 OFFCURVE",
"725 624 OFFCURVE",
"725 591 CURVE SMOOTH",
"725 491 OFFCURVE",
"752 414 OFFCURVE",
"777 343 CURVE SMOOTH",
"799 280 OFFCURVE",
"819 221 OFFCURVE",
"819 149 CURVE SMOOTH",
"819 77 OFFCURVE",
"792 41 OFFCURVE",
"729 41 CURVE SMOOTH",
"676 41 OFFCURVE",
"648 67 OFFCURVE",
"636 131 CURVE SMOOTH",
"610 266 LINE SMOOTH",
"589 375 OFFCURVE",
"565 485 OFFCURVE",
"439 485 CURVE SMOOTH",
"360 485 OFFCURVE",
"299 430 OFFCURVE",
"254 377 CURVE",
"234 450 OFFCURVE",
"217 528 OFFCURVE",
"214 608 CURVE SMOOTH",
"213 631 OFFCURVE",
"202 640 OFFCURVE",
"175 640 CURVE SMOOTH",
"138 640 OFFCURVE",
"125 627 OFFCURVE",
"125 602 CURVE SMOOTH",
"125 548 OFFCURVE",
"148 446 OFFCURVE",
"173 347 CURVE SMOOTH",
"196 255 OFFCURVE",
"216 166 OFFCURVE",
"216 121 CURVE SMOOTH",
"216 77 OFFCURVE",
"183 64 OFFCURVE",
"157 64 CURVE SMOOTH",
"128 64 OFFCURVE",
"105 77 OFFCURVE",
"92 87 CURVE SMOOTH",
"83 94 OFFCURVE",
"76 98 OFFCURVE",
"67 98 CURVE SMOOTH",
"49 98 OFFCURVE",
"30 77 OFFCURVE",
"30 55 CURVE SMOOTH",
"30 22 OFFCURVE",
"78 -12 OFFCURVE",
"153 -12 CURVE SMOOTH",
"269 -12 OFFCURVE",
"304 53 OFFCURVE",
"304 119 CURVE SMOOTH",
"304 166 OFFCURVE",
"290 226 OFFCURVE",
"275 288 CURVE",
"310 339 OFFCURVE",
"379 409 OFFCURVE",
"433 409 CURVE SMOOTH",
"484 409 OFFCURVE",
"505 358 OFFCURVE",
"526 250 CURVE SMOOTH",
"552 113 LINE SMOOTH",
"569 21 OFFCURVE",
"617 -35 OFFCURVE",
"728 -35 CURVE SMOOTH"
);
}
);
width = 967;
}
);
},
{
glyphname = u1086E10865;
lastChange = "2018-02-06 17:10:54 +0000";
layers = (
{
layerId = UUID0;
paths = (
{
closed = 1;
nodes = (
"669 -35 OFFCURVE",
"756 23 OFFCURVE",
"756 149 CURVE SMOOTH",
"756 231 OFFCURVE",
"738 286 OFFCURVE",
"714 353 CURVE SMOOTH",
"689 424 OFFCURVE",
"663 500 OFFCURVE",
"663 609 CURVE SMOOTH",
"663 633 OFFCURVE",
"646 640 OFFCURVE",
"624 640 CURVE SMOOTH",
"585 640 OFFCURVE",
"575 624 OFFCURVE",
"575 591 CURVE SMOOTH",
"575 491 OFFCURVE",
"602 414 OFFCURVE",
"627 343 CURVE SMOOTH",
"649 280 OFFCURVE",
"669 221 OFFCURVE",
"669 149 CURVE SMOOTH",
"669 77 OFFCURVE",
"630 41 OFFCURVE",
"545 41 CURVE SMOOTH",
"489 41 OFFCURVE",
"460 67 OFFCURVE",
"448 135 CURVE SMOOTH",
"388 480 LINE SMOOTH",
"369 590 OFFCURVE",
"322 650 OFFCURVE",
"181 650 CURVE SMOOTH",
"46 650 OFFCURVE",
"0 594 OFFCURVE",
"0 527 CURVE SMOOTH",
"0 463 OFFCURVE",
"27 427 OFFCURVE",
"58 427 CURVE SMOOTH",
"75 427 OFFCURVE",
"96 439 OFFCURVE",
"96 459 CURVE SMOOTH",
"96 468 OFFCURVE",
"93 478 OFFCURVE",
"89 489 CURVE SMOOTH",
"86 498 OFFCURVE",
"84 507 OFFCURVE",
"84 521 CURVE SMOOTH",
"84 547 OFFCURVE",
"99 574 OFFCURVE",
"184 574 CURVE SMOOTH",
"267 574 OFFCURVE",
"291 533 OFFCURVE",
"303 462 CURVE SMOOTH",
"363 113 LINE SMOOTH",
"379 21 OFFCURVE",
"430 -35 OFFCURVE",
"543 -35 CURVE SMOOTH"
);
}
);
width = 817;
}
);
},
{
glyphname = u1086E10864;
lastChange = "2018-02-06 17:10:54 +0000";
layers = (
{
layerId = UUID0;
paths = (
{
closed = 1;
nodes = (
"804 -35 OFFCURVE",
"876 23 OFFCURVE",
"876 149 CURVE SMOOTH",
"876 231 OFFCURVE",
"858 286 OFFCURVE",
"834 353 CURVE SMOOTH",
"809 424 OFFCURVE",
"783 500 OFFCURVE",
"783 609 CURVE SMOOTH",
"783 633 OFFCURVE",
"766 640 OFFCURVE",
"744 640 CURVE SMOOTH",
"705 640 OFFCURVE",
"695 624 OFFCURVE",
"695 591 CURVE SMOOTH",
"695 491 OFFCURVE",
"722 414 OFFCURVE",
"747 343 CURVE SMOOTH",
"769 280 OFFCURVE",
"789 221 OFFCURVE",
"789 149 CURVE SMOOTH",
"789 77 OFFCURVE",
"762 41 OFFCURVE",
"702 41 CURVE SMOOTH",
"650 41 OFFCURVE",
"624 60 OFFCURVE",
"597 127 CURVE SMOOTH",
"566 204 OFFCURVE",
"539 284 OFFCURVE",
"518 375 CURVE SMOOTH",
"500 451 OFFCURVE",
"497 520 OFFCURVE",
"497 601 CURVE SMOOTH",
"497 630 OFFCURVE",
"493 640 OFFCURVE",
"456 640 CURVE SMOOTH",
"412 640 OFFCURVE",
"410 626 OFFCURVE",
"410 558 CURVE SMOOTH",
"410 502 OFFCURVE",
"417 443 OFFCURVE",
"429 385 CURVE",
"344 404 OFFCURVE",
"209 461 OFFCURVE",
"77 593 CURVE SMOOTH",
"67 603 OFFCURVE",
"58 607 OFFCURVE",
"48 607 CURVE SMOOTH",
"24 607 OFFCURVE",
"0 584 OFFCURVE",
"0 562 CURVE SMOOTH",
"0 549 OFFCURVE",
"11 533 OFFCURVE",
"26 517 CURVE SMOOTH",
"125 411 OFFCURVE",
"296 328 OFFCURVE",
"446 300 CURVE",
"287 247 OFFCURVE",
"177 57 OFFCURVE",
"177 25 CURVE SMOOTH",
"177 2 OFFCURVE",
"202 -6 OFFCURVE",
"225 -6 CURVE SMOOTH",
"242 -6 OFFCURVE",
"256 -1 OFFCURVE",
"262 12 CURVE SMOOTH",
"291 74 OFFCURVE",
"377 192 OFFCURVE",
"472 224 CURVE",
"491 165 OFFCURVE",
"513 107 OFFCURVE",
"524 81 CURVE SMOOTH",
"560 -1 OFFCURVE",
"607 -35 OFFCURVE",
"702 -35 CURVE SMOOTH"
);
}
);
width = 937;
}
);
},
{
glyphname = u108711086B;
lastChange = "2018-02-06 17:10:54 +0000";
layers = (
{
layerId = UUID0;
paths = (
{
closed = 1;
nodes = (
"387 -10 OFFCURVE",
"470 48 OFFCURVE",
"470 158 CURVE SMOOTH",
"470 225 OFFCURVE",
"420 406 OFFCURVE",
"332 406 CURVE SMOOTH",
"305 406 OFFCURVE",
"289 395 OFFCURVE",
"258 373 CURVE SMOOTH",
"233 355 OFFCURVE",
"206 338 OFFCURVE",
"178 338 CURVE SMOOTH",
"147 338 OFFCURVE",
"134 371 OFFCURVE",
"124 468 CURVE SMOOTH",
"115 558 OFFCURVE",
"109 681 OFFCURVE",
"109 746 CURVE SMOOTH",
"109 769 OFFCURVE",
"97 778 OFFCURVE",
"64 778 CURVE SMOOTH",
"37 778 OFFCURVE",
"20 771 OFFCURVE",
"20 746 CURVE SMOOTH",
"20 705 OFFCURVE",
"30 557 OFFCURVE",
"39 464 CURVE SMOOTH",
"52 328 OFFCURVE",
"78 262 OFFCURVE",
"169 262 CURVE SMOOTH",
"213 262 OFFCURVE",
"254 281 OFFCURVE",
"278 299 CURVE SMOOTH",
"294 311 OFFCURVE",
"305 318 OFFCURVE",
"314 318 CURVE SMOOTH",
"345 318 OFFCURVE",
"382 219 OFFCURVE",
"382 165 CURVE SMOOTH",
"382 109 OFFCURVE",
"358 66 OFFCURVE",
"270 66 CURVE SMOOTH",
"256 66 OFFCURVE",
"248 67 OFFCURVE",
"241 68 CURVE SMOOTH",
"235 69 OFFCURVE",
"229 70 OFFCURVE",
"223 70 CURVE SMOOTH",
"203 70 OFFCURVE",
"195 58 OFFCURVE",
"195 37 CURVE SMOOTH",
"195 0 OFFCURVE",
"219 -10 OFFCURVE",
"289 -10 CURVE SMOOTH"
);
},
{
closed = 1;
nodes = (
"839 -2 OFFCURVE",
"888 37 OFFCURVE",
"888 109 CURVE SMOOTH",
"888 129 OFFCURVE",
"882 151 OFFCURVE",
"869 197 CURVE SMOOTH",
"860 230 OFFCURVE",
"849 273 OFFCURVE",
"838 326 CURVE SMOOTH",
"826 384 OFFCURVE",
"818 467 OFFCURVE",
"815 552 CURVE SMOOTH",
"812 629 OFFCURVE",
"777 640 OFFCURVE",
"653 640 CURVE SMOOTH",
"590 640 OFFCURVE",
"559 638 OFFCURVE",
"525 631 CURVE SMOOTH",
"515 629 OFFCURVE",
"505 627 OFFCURVE",
"498 627 CURVE SMOOTH",
"485 627 OFFCURVE",
"480 630 OFFCURVE",
"473 635 CURVE SMOOTH",
"464 641 OFFCURVE",
"458 644 OFFCURVE",
"446 644 CURVE SMOOTH",
"427 644 OFFCURVE",
"404 632 OFFCURVE",
"404 604 CURVE SMOOTH",
"404 593 OFFCURVE",
"410 551 OFFCURVE",
"441 457 CURVE SMOOTH",
"478 344 OFFCURVE",
"493 337 OFFCURVE",
"521 337 CURVE SMOOTH",
"536 337 OFFCURVE",
"559 348 OFFCURVE",
"559 369 CURVE SMOOTH",
"559 389 OFFCURVE",
"550 412 OFFCURVE",
"539 440 CURVE SMOOTH",
"525 475 OFFCURVE",
"513 512 OFFCURVE",
"513 528 CURVE SMOOTH",
"513 553 OFFCURVE",
"534 564 OFFCURVE",
"606 564 CURVE SMOOTH",
"732 564 OFFCURVE",
"735 562 OFFCURVE",
"737 512 CURVE SMOOTH",
"739 460 OFFCURVE",
"744 383 OFFCURVE",
"758 311 CURVE SMOOTH",
"765 276 OFFCURVE",
"774 241 OFFCURVE",
"782 210 CURVE SMOOTH",
"792 173 OFFCURVE",
"800 142 OFFCURVE",
"800 126 CURVE SMOOTH",
"800 83 OFFCURVE",
"745 74 OFFCURVE",
"634 74 CURVE SMOOTH",
"575 74 OFFCURVE",
"496 80 OFFCURVE",
"453 85 CURVE SMOOTH",
"415 89 OFFCURVE",
"404 90 OFFCURVE",
"389 90 CURVE SMOOTH",
"367 90 OFFCURVE",
"360 75 OFFCURVE",
"360 57 CURVE SMOOTH",
"360 36 OFFCURVE",
"366 18 OFFCURVE",
"383 13 CURVE SMOOTH",
"424 1 OFFCURVE",
"563 -2 OFFCURVE",
"630 -2 CURVE SMOOTH"
);
}
);
width = 948;
}
);
},
{
glyphname = u1086E10860;
lastChange = "2018-02-06 17:10:54 +0000";
layers = (
{
layerId = UUID0;
paths = (
{
closed = 1;
nodes = (
"824 -35 OFFCURVE",
"896 23 OFFCURVE",
"896 149 CURVE SMOOTH",
"896 231 OFFCURVE",
"878 286 OFFCURVE",
"854 353 CURVE SMOOTH",
"829 424 OFFCURVE",
"803 500 OFFCURVE",
"803 609 CURVE SMOOTH",
"803 633 OFFCURVE",
"786 640 OFFCURVE",
"764 640 CURVE SMOOTH",
"725 640 OFFCURVE",
"715 624 OFFCURVE",
"715 591 CURVE SMOOTH",
"715 491 OFFCURVE",
"742 414 OFFCURVE",
"767 343 CURVE SMOOTH",
"789 280 OFFCURVE",
"809 221 OFFCURVE",
"809 149 CURVE SMOOTH",
"809 77 OFFCURVE",
"782 41 OFFCURVE",
"732 41 CURVE SMOOTH",
"692 41 OFFCURVE",
"659 59 OFFCURVE",
"618 89 CURVE SMOOTH",
"556 134 OFFCURVE",
"485 205 OFFCURVE",
"419 283 CURVE",
"483 353 OFFCURVE",
"562 511 OFFCURVE",
"562 605 CURVE SMOOTH",
"562 634 OFFCURVE",
"543 640 OFFCURVE",
"511 640 CURVE SMOOTH",
"489 640 OFFCURVE",
"476 633 OFFCURVE",
"473 605 CURVE SMOOTH",
"462 510 OFFCURVE",
"420 411 OFFCURVE",
"362 348 CURVE",
"295 429 OFFCURVE",
"234 515 OFFCURVE",
"175 607 CURVE SMOOTH",
"161 629 OFFCURVE",
"151 640 OFFCURVE",
"127 640 CURVE SMOOTH",
"103 640 OFFCURVE",
"78 631 OFFCURVE",
"78 605 CURVE SMOOTH",
"78 592 OFFCURVE",
"89 570 OFFCURVE",
"105 547 CURVE SMOOTH",
"128 513 OFFCURVE",
"147 486 OFFCURVE",
"166 459 CURVE",
"70 343 OFFCURVE",
"40 262 OFFCURVE",
"40 197 CURVE SMOOTH",
"40 89 OFFCURVE",
"105 37 OFFCURVE",
"188 37 CURVE SMOOTH",
"241 37 OFFCURVE",
"300 55 OFFCURVE",
"332 118 CURVE SMOOTH",
"336 126 OFFCURVE",
"337 129 OFFCURVE",
"337 137 CURVE SMOOTH",
"337 155 OFFCURVE",
"311 178 OFFCURVE",
"289 178 CURVE SMOOTH",
"275 178 OFFCURVE",
"269 170 OFFCURVE",
"258 154 CURVE SMOOTH",
"245 135 OFFCURVE",
"229 113 OFFCURVE",
"194 113 CURVE SMOOTH",
"146 113 OFFCURVE",
"128 154 OFFCURVE",
"128 210 CURVE SMOOTH",
"128 245 OFFCURVE",
"143 306 OFFCURVE",
"213 394 CURVE",
"249 346 OFFCURVE",
"286 300 OFFCURVE",
"336 246 CURVE SMOOTH",
"429 144 OFFCURVE",
"503 63 OFFCURVE",
"578 14 CURVE SMOOTH",
"627 -18 OFFCURVE",
"677 -35 OFFCURVE",
"732 -35 CURVE SMOOTH"
);
}
);
width = 957;
}
);
},
{
glyphname = u1086C10876;
lastChange = "2018-02-06 17:10:54 +0000";
layers = (
{
layerId = UUID0;
paths = (
{
closed = 1;
nodes = (
"269 -12 OFFCURVE",
"304 53 OFFCURVE",
"304 119 CURVE SMOOTH",
"304 166 OFFCURVE",
"290 226 OFFCURVE",
"275 288 CURVE",
"310 339 OFFCURVE",
"379 409 OFFCURVE",
"433 409 CURVE SMOOTH",
"500 409 OFFCURVE",
"515 319 OFFCURVE",
"543 157 CURVE SMOOTH",
"568 14 OFFCURVE",
"575 -10 OFFCURVE",
"619 -10 CURVE SMOOTH",
"641 -10 OFFCURVE",
"662 1 OFFCURVE",
"685 13 CURVE SMOOTH",
"819 82 OFFCURVE",
"874 240 OFFCURVE",
"874 387 CURVE SMOOTH",
"874 425 OFFCURVE",
"872 451 OFFCURVE",
"867 476 CURVE",
"938 448 OFFCURVE",
"1022 436 OFFCURVE",
"1074 436 CURVE",
"1074 429 LINE SMOOTH",
"1074 373 OFFCURVE",
"1101 318 OFFCURVE",
"1128 267 CURVE SMOOTH",
"1150 225 OFFCURVE",
"1170 186 OFFCURVE",
"1170 143 CURVE SMOOTH",
"1170 87 OFFCURVE",
"1132 66 OFFCURVE",
"1089 66 CURVE SMOOTH",
"1052 66 OFFCURVE",
"1018 82 OFFCURVE",
"994 120 CURVE SMOOTH",
"987 131 OFFCURVE",
"982 136 OFFCURVE",
"968 136 CURVE SMOOTH",
"951 136 OFFCURVE",
"916 121 OFFCURVE",
"916 96 CURVE SMOOTH",
"916 54 OFFCURVE",
"974 -10 OFFCURVE",
"1086 -10 CURVE SMOOTH",
"1156 -10 OFFCURVE",
"1258 14 OFFCURVE",
"1258 150 CURVE SMOOTH",
"1258 214 OFFCURVE",
"1233 265 OFFCURVE",
"1200 326 CURVE SMOOTH",
"1178 367 OFFCURVE",
"1158 405 OFFCURVE",
"1158 446 CURVE SMOOTH",
"1158 451 OFFCURVE",
"1158 459 OFFCURVE",
"1159 468 CURVE SMOOTH",
"1160 479 OFFCURVE",
"1160 483 OFFCURVE",
"1160 489 CURVE SMOOTH",
"1160 509 OFFCURVE",
"1140 520 OFFCURVE",
"1121 520 CURVE SMOOTH",
"1113 520 OFFCURVE",
"1104 519 OFFCURVE",
"1091 516 CURVE SMOOTH",
"1083 514 OFFCURVE",
"1075 513 OFFCURVE",
"1067 513 CURVE SMOOTH",
"1039 513 OFFCURVE",
"878 532 OFFCURVE",
"837 579 CURVE",
"816 613 OFFCURVE",
"794 642 OFFCURVE",
"773 642 CURVE SMOOTH",
"752 642 OFFCURVE",
"731 623 OFFCURVE",
"731 604 CURVE SMOOTH",
"731 593 OFFCURVE",
"735 586 OFFCURVE",
"742 578 CURVE SMOOTH",
"781 534 OFFCURVE",
"793 469 OFFCURVE",
"793 403 CURVE SMOOTH",
"793 290 OFFCURVE",
"765 152 OFFCURVE",
"643 86 CURVE",
"633 147 OFFCURVE",
"621 213 OFFCURVE",
"608 277 CURVE SMOOTH",
"587 381 OFFCURVE",
"560 485 OFFCURVE",
"439 485 CURVE SMOOTH",
"373 485 OFFCURVE",
"303 434 OFFCURVE",
"254 377 CURVE",
"234 450 OFFCURVE",
"217 528 OFFCURVE",
"214 608 CURVE SMOOTH",
"213 631 OFFCURVE",
"202 640 OFFCURVE",
"175 640 CURVE SMOOTH",
"138 640 OFFCURVE",
"125 627 OFFCURVE",
"125 602 CURVE SMOOTH",
"125 548 OFFCURVE",
"148 446 OFFCURVE",
"173 347 CURVE SMOOTH",
"196 255 OFFCURVE",
"216 166 OFFCURVE",
"216 121 CURVE SMOOTH",
"216 77 OFFCURVE",
"183 64 OFFCURVE",
"157 64 CURVE SMOOTH",
"128 64 OFFCURVE",
"105 77 OFFCURVE",
"92 87 CURVE SMOOTH",
"83 94 OFFCURVE",
"76 98 OFFCURVE",
"67 98 CURVE SMOOTH",
"49 98 OFFCURVE",
"30 77 OFFCURVE",
"30 55 CURVE SMOOTH",
"30 22 OFFCURVE",
"78 -12 OFFCURVE",
"153 -12 CURVE SMOOTH"
);
}
);
width = 1298;
}
);
},
{
glyphname = u1087310863;
lastChange = "2018-02-06 17:10:54 +0000";
layers = (
{
layerId = UUID0;
paths = (
{
closed = 1;
nodes = (
"676 -17 OFFCURVE",
"719 41 OFFCURVE",
"719 138 CURVE SMOOTH",
"719 193 OFFCURVE",
"711 246 OFFCURVE",
"701 308 CURVE SMOOTH",
"693 359 OFFCURVE",
"684 417 OFFCURVE",
"678 501 CURVE",
"719 460 OFFCURVE",
"791 440 OFFCURVE",
"862 440 CURVE SMOOTH",
"946 440 OFFCURVE",
"1034 462 OFFCURVE",
"1085 513 CURVE",
"1097 400 OFFCURVE",
"1122 322 OFFCURVE",
"1142 261 CURVE SMOOTH",
"1157 214 OFFCURVE",
"1169 176 OFFCURVE",
"1169 146 CURVE SMOOTH",
"1169 95 OFFCURVE",
"1146 66 OFFCURVE",
"1102 66 CURVE SMOOTH",
"1073 66 OFFCURVE",
"1052 78 OFFCURVE",
"1035 90 CURVE SMOOTH",
"1025 97 OFFCURVE",
"1016 102 OFFCURVE",
"1006 102 CURVE SMOOTH",
"985 102 OFFCURVE",
"965 80 OFFCURVE",
"965 58 CURVE SMOOTH",
"965 27 OFFCURVE",
"1020 -10 OFFCURVE",
"1097 -10 CURVE SMOOTH",
"1181 -10 OFFCURVE",
"1257 39 OFFCURVE",
"1257 142 CURVE SMOOTH",
"1257 189 OFFCURVE",
"1241 236 OFFCURVE",
"1223 286 CURVE SMOOTH",
"1190 378 OFFCURVE",
"1165 452 OFFCURVE",
"1165 605 CURVE SMOOTH",
"1165 631 OFFCURVE",
"1143 640 OFFCURVE",
"1125 640 CURVE SMOOTH",
"1107 640 OFFCURVE",
"1097 629 OFFCURVE",
"1080 608 CURVE SMOOTH",
"1049 570 OFFCURVE",
"1002 514 OFFCURVE",
"857 514 CURVE SMOOTH",
"761 514 OFFCURVE",
"723 556 OFFCURVE",
"691 595 CURVE SMOOTH",
"671 620 OFFCURVE",
"653 640 OFFCURVE",
"624 640 CURVE SMOOTH",
"599 640 OFFCURVE",
"587 627 OFFCURVE",
"587 605 CURVE SMOOTH",
"587 492 OFFCURVE",
"600 391 OFFCURVE",
"614 304 CURVE SMOOTH",
"624 240 OFFCURVE",
"631 185 OFFCURVE",
"631 130 CURVE SMOOTH",
"631 81 OFFCURVE",
"619 59 OFFCURVE",
"597 59 CURVE SMOOTH",
"561 59 OFFCURVE",
"530 132 OFFCURVE",
"493 264 CURVE SMOOTH",
"457 392 OFFCURVE",
"444 494 OFFCURVE",
"444 617 CURVE SMOOTH",
"444 635 OFFCURVE",
"433 640 OFFCURVE",
"402 640 CURVE SMOOTH",
"377 640 OFFCURVE",
"363 632 OFFCURVE",
"360 612 CURVE SMOOTH",
"358 597 OFFCURVE",
"358 568 OFFCURVE",
"358 544 CURVE SMOOTH",
"358 486 OFFCURVE",
"294 452 OFFCURVE",
"243 452 CURVE SMOOTH",
"155 452 OFFCURVE",
"108 506 OFFCURVE",
"108 580 CURVE SMOOTH",
"108 589 OFFCURVE",
"108 595 OFFCURVE",
"109 604 CURVE SMOOTH",
"110 612 OFFCURVE",
"110 614 OFFCURVE",
"110 619 CURVE SMOOTH",
"110 633 OFFCURVE",
"99 640 OFFCURVE",
"66 640 CURVE SMOOTH",
"26 640 OFFCURVE",
"20 616 OFFCURVE",
"20 581 CURVE SMOOTH",
"20 521 OFFCURVE",
"53 376 OFFCURVE",
"241 376 CURVE SMOOTH",
"292 376 OFFCURVE",
"339 389 OFFCURVE",
"373 419 CURVE",
"392 299 OFFCURVE",
"418 208 OFFCURVE",
"446 130 CURVE SMOOTH",
"483 25 OFFCURVE",
"524 -17 OFFCURVE",
"597 -17 CURVE SMOOTH"
);
}
);
width = 1297;
}
);
},
{
glyphname = u1087310874;
lastChange = "2018-02-06 17:10:54 +0000";
layers = (
{
components = (
{
name = u1087310863;
}
);
layerId = UUID0;
paths = (
{
closed = 1;
nodes = (
"268 610 OFFCURVE",
"296 637 OFFCURVE",
"296 670 CURVE SMOOTH",
"296 697 OFFCURVE",
"279 721 OFFCURVE",
"246 721 CURVE SMOOTH",
"208 721 OFFCURVE",
"185 697 OFFCURVE",
"185 661 CURVE SMOOTH",
"185 631 OFFCURVE",
"203 610 OFFCURVE",
"234 610 CURVE SMOOTH"
);
}
);
width = 1297;
}
);
},
{
glyphname = u1086C10874;
lastChange = "2018-02-06 17:10:54 +0000";
layers = (
{
components = (
{
name = u1086C10863;
}
);
layerId = UUID0;
paths = (
{
closed = 1;
nodes = (
"268 610 OFFCURVE",
"296 637 OFFCURVE",
"296 670 CURVE SMOOTH",
"296 697 OFFCURVE",
"279 721 OFFCURVE",
"246 721 CURVE SMOOTH",
"208 721 OFFCURVE",
"185 697 OFFCURVE",
"185 661 CURVE SMOOTH",
"185 631 OFFCURVE",
"203 610 OFFCURVE",
"234 610 CURVE SMOOTH"
);
}
);
width = 1210;
}
);
},
{
glyphname = u1086C10867;
lastChange = "2018-02-06 17:10:54 +0000";
layers = (
{
layerId = UUID0;
paths = (
{
closed = 1;
nodes = (
"232 -13 OFFCURVE",
"267 44 OFFCURVE",
"267 104 CURVE SMOOTH",
"267 151 OFFCURVE",
"250 222 OFFCURVE",
"227 291 CURVE",
"257 314 OFFCURVE",
"291 336 OFFCURVE",
"322 336 CURVE SMOOTH",
"357 336 OFFCURVE",
"424 291 OFFCURVE",
"480 250 CURVE",
"504 172 OFFCURVE",
"539 75 OFFCURVE",
"566 13 CURVE SMOOTH",
"574 -5 OFFCURVE",
"585 -13 OFFCURVE",
"605 -13 CURVE SMOOTH",
"624 -13 OFFCURVE",
"644 -4 OFFCURVE",
"667 10 CURVE SMOOTH",
"790 85 OFFCURVE",
"844 239 OFFCURVE",
"844 387 CURVE SMOOTH",
"844 425 OFFCURVE",
"842 451 OFFCURVE",
"837 476 CURVE",
"908 448 OFFCURVE",
"992 436 OFFCURVE",
"1044 436 CURVE",
"1044 429 LINE SMOOTH",
"1044 373 OFFCURVE",
"1071 318 OFFCURVE",
"1098 267 CURVE SMOOTH",
"1120 225 OFFCURVE",
"1140 186 OFFCURVE",
"1140 143 CURVE SMOOTH",
"1140 87 OFFCURVE",
"1102 66 OFFCURVE",
"1059 66 CURVE SMOOTH",
"1022 66 OFFCURVE",
"988 82 OFFCURVE",
"964 120 CURVE SMOOTH",
"957 131 OFFCURVE",
"952 136 OFFCURVE",
"938 136 CURVE SMOOTH",
"921 136 OFFCURVE",
"886 121 OFFCURVE",
"886 96 CURVE SMOOTH",
"886 54 OFFCURVE",
"944 -10 OFFCURVE",
"1056 -10 CURVE SMOOTH",
"1126 -10 OFFCURVE",
"1228 14 OFFCURVE",
"1228 150 CURVE SMOOTH",
"1228 214 OFFCURVE",
"1203 265 OFFCURVE",
"1170 326 CURVE SMOOTH",
"1148 367 OFFCURVE",
"1128 405 OFFCURVE",
"1128 446 CURVE SMOOTH",
"1128 451 OFFCURVE",
"1128 459 OFFCURVE",
"1129 468 CURVE SMOOTH",
"1130 479 OFFCURVE",
"1130 483 OFFCURVE",
"1130 489 CURVE SMOOTH",
"1130 509 OFFCURVE",
"1110 520 OFFCURVE",
"1091 520 CURVE SMOOTH",
"1083 520 OFFCURVE",
"1074 519 OFFCURVE",
"1061 516 CURVE SMOOTH",
"1053 514 OFFCURVE",
"1045 513 OFFCURVE",
"1037 513 CURVE SMOOTH",
"1009 513 OFFCURVE",
"848 532 OFFCURVE",
"807 579 CURVE",
"786 613 OFFCURVE",
"764 642 OFFCURVE",
"743 642 CURVE SMOOTH",
"722 642 OFFCURVE",
"701 623 OFFCURVE",
"701 604 CURVE SMOOTH",
"701 593 OFFCURVE",
"705 586 OFFCURVE",
"712 578 CURVE SMOOTH",
"751 534 OFFCURVE",
"763 469 OFFCURVE",
"763 403 CURVE SMOOTH",
"763 291 OFFCURVE",
"738 154 OFFCURVE",
"629 88 CURVE",
"552 283 OFFCURVE",
"513 393 OFFCURVE",
"513 596 CURVE SMOOTH",
"513 630 OFFCURVE",
"511 640 OFFCURVE",
"472 640 CURVE SMOOTH",
"444 640 OFFCURVE",
"431 631 OFFCURVE",
"429 617 CURVE SMOOTH",
"426 594 OFFCURVE",
"426 576 OFFCURVE",
"426 558 CURVE SMOOTH",
"426 491 OFFCURVE",
"437 420 OFFCURVE",
"453 352 CURVE",
"401 385 OFFCURVE",
"363 408 OFFCURVE",
"326 408 CURVE SMOOTH",
"282 408 OFFCURVE",
"241 383 OFFCURVE",
"206 358 CURVE",
"184 442 OFFCURVE",
"173 545 OFFCURVE",
"173 607 CURVE SMOOTH",
"173 631 OFFCURVE",
"167 640 OFFCURVE",
"132 640 CURVE SMOOTH",
"95 640 OFFCURVE",
"87 627 OFFCURVE",
"87 602 CURVE SMOOTH",
"87 530 OFFCURVE",
"98 417 OFFCURVE",
"130 315 CURVE SMOOTH",
"158 225 OFFCURVE",
"179 146 OFFCURVE",
"179 114 CURVE SMOOTH",
"179 77 OFFCURVE",
"165 63 OFFCURVE",
"132 63 CURVE SMOOTH",
"113 63 OFFCURVE",
"99 67 OFFCURVE",
"86 72 CURVE SMOOTH",
"75 76 OFFCURVE",
"66 79 OFFCURVE",
"56 79 CURVE SMOOTH",
"36 79 OFFCURVE",
"20 60 OFFCURVE",
"20 39 CURVE SMOOTH",
"20 27 OFFCURVE",
"27 17 OFFCURVE",
"43 7 CURVE SMOOTH",
"63 -5 OFFCURVE",
"96 -13 OFFCURVE",
"134 -13 CURVE SMOOTH"
);
}
);
width = 1268;
}
);
},
{
glyphname = u1086C10863;
lastChange = "2018-02-06 17:10:54 +0000";
layers = (
{
layerId = UUID0;
paths = (
{
closed = 1;
nodes = (
"546 -13 OFFCURVE",
"568 -2 OFFCURVE",
"595 13 CURVE SMOOTH",
"728 86 OFFCURVE",
"784 240 OFFCURVE",
"784 387 CURVE SMOOTH",
"784 425 OFFCURVE",
"782 451 OFFCURVE",
"777 476 CURVE",
"848 448 OFFCURVE",
"932 436 OFFCURVE",
"984 436 CURVE",
"984 429 LINE SMOOTH",
"984 373 OFFCURVE",
"1011 318 OFFCURVE",
"1038 267 CURVE SMOOTH",
"1060 225 OFFCURVE",
"1080 186 OFFCURVE",
"1080 143 CURVE SMOOTH",
"1080 87 OFFCURVE",
"1042 66 OFFCURVE",
"999 66 CURVE SMOOTH",
"962 66 OFFCURVE",
"928 82 OFFCURVE",
"904 120 CURVE SMOOTH",
"897 131 OFFCURVE",
"892 136 OFFCURVE",
"878 136 CURVE SMOOTH",
"861 136 OFFCURVE",
"826 121 OFFCURVE",
"826 96 CURVE SMOOTH",
"826 54 OFFCURVE",
"884 -10 OFFCURVE",
"996 -10 CURVE SMOOTH",
"1066 -10 OFFCURVE",
"1168 14 OFFCURVE",
"1168 150 CURVE SMOOTH",
"1168 214 OFFCURVE",
"1143 265 OFFCURVE",
"1110 326 CURVE SMOOTH",
"1088 367 OFFCURVE",
"1068 405 OFFCURVE",
"1068 446 CURVE SMOOTH",
"1068 451 OFFCURVE",
"1068 459 OFFCURVE",
"1069 468 CURVE SMOOTH",
"1070 479 OFFCURVE",
"1070 483 OFFCURVE",
"1070 489 CURVE SMOOTH",
"1070 509 OFFCURVE",
"1050 520 OFFCURVE",
"1031 520 CURVE SMOOTH",
"1023 520 OFFCURVE",
"1014 519 OFFCURVE",
"1001 516 CURVE SMOOTH",
"993 514 OFFCURVE",
"985 513 OFFCURVE",
"977 513 CURVE SMOOTH",
"949 513 OFFCURVE",
"788 532 OFFCURVE",
"747 579 CURVE",
"726 613 OFFCURVE",
"704 642 OFFCURVE",
"683 642 CURVE SMOOTH",
"662 642 OFFCURVE",
"641 623 OFFCURVE",
"641 604 CURVE SMOOTH",
"641 593 OFFCURVE",
"645 586 OFFCURVE",
"652 578 CURVE SMOOTH",
"691 534 OFFCURVE",
"703 469 OFFCURVE",
"703 403 CURVE SMOOTH",
"703 290 OFFCURVE",
"675 152 OFFCURVE",
"550 85 CURVE",
"525 156 OFFCURVE",
"511 202 OFFCURVE",
"493 264 CURVE SMOOTH",
"456 392 OFFCURVE",
"444 494 OFFCURVE",
"444 617 CURVE SMOOTH",
"444 635 OFFCURVE",
"433 640 OFFCURVE",
"402 640 CURVE SMOOTH",
"377 640 OFFCURVE",
"363 632 OFFCURVE",
"360 612 CURVE SMOOTH",
"358 597 OFFCURVE",
"358 568 OFFCURVE",
"358 544 CURVE SMOOTH",
"358 486 OFFCURVE",
"294 452 OFFCURVE",
"243 452 CURVE SMOOTH",
"155 452 OFFCURVE",
"108 506 OFFCURVE",
"108 580 CURVE SMOOTH",
"108 589 OFFCURVE",
"108 595 OFFCURVE",
"109 604 CURVE SMOOTH",
"110 612 OFFCURVE",
"110 614 OFFCURVE",
"110 619 CURVE SMOOTH",
"110 633 OFFCURVE",
"99 640 OFFCURVE",
"66 640 CURVE SMOOTH",
"26 640 OFFCURVE",
"20 616 OFFCURVE",
"20 581 CURVE SMOOTH",
"20 521 OFFCURVE",
"53 376 OFFCURVE",
"241 376 CURVE SMOOTH",
"292 376 OFFCURVE",
"339 389 OFFCURVE",
"373 419 CURVE",
"402 239 OFFCURVE",
"471 52 OFFCURVE",
"485 15 CURVE SMOOTH",
"492 -4 OFFCURVE",
"502 -13 OFFCURVE",
"522 -13 CURVE SMOOTH"
);
}
);
width = 1208;
}
);
},
{
glyphname = u1086C10860;
lastChange = "2018-02-06 17:10:54 +0000";
layers = (
{
layerId = UUID0;
paths = (
{
closed = 1;
nodes = (
"1166 -10 OFFCURVE",
"1268 14 OFFCURVE",
"1268 150 CURVE SMOOTH",
"1268 214 OFFCURVE",
"1243 265 OFFCURVE",
"1210 326 CURVE SMOOTH",
"1188 367 OFFCURVE",
"1168 405 OFFCURVE",
"1168 446 CURVE SMOOTH",
"1168 451 OFFCURVE",
"1168 459 OFFCURVE",
"1169 468 CURVE SMOOTH",
"1170 479 OFFCURVE",
"1170 483 OFFCURVE",
"1170 489 CURVE SMOOTH",
"1170 509 OFFCURVE",
"1150 520 OFFCURVE",
"1131 520 CURVE SMOOTH",
"1123 520 OFFCURVE",
"1114 519 OFFCURVE",
"1101 516 CURVE SMOOTH",
"1093 514 OFFCURVE",
"1085 513 OFFCURVE",
"1077 513 CURVE SMOOTH",
"1049 513 OFFCURVE",
"888 532 OFFCURVE",
"847 579 CURVE",
"826 613 OFFCURVE",
"804 642 OFFCURVE",
"783 642 CURVE SMOOTH",
"762 642 OFFCURVE",
"741 623 OFFCURVE",
"741 604 CURVE SMOOTH",
"741 593 OFFCURVE",
"745 586 OFFCURVE",
"752 578 CURVE SMOOTH",
"791 534 OFFCURVE",
"803 469 OFFCURVE",
"803 403 CURVE SMOOTH",
"803 290 OFFCURVE",
"778 161 OFFCURVE",
"644 82 CURVE",
"574 132 OFFCURVE",
"493 202 OFFCURVE",
"419 283 CURVE",
"483 353 OFFCURVE",
"562 511 OFFCURVE",
"562 605 CURVE SMOOTH",
"562 634 OFFCURVE",
"542 640 OFFCURVE",
"511 640 CURVE SMOOTH",
"489 640 OFFCURVE",
"476 633 OFFCURVE",
"473 605 CURVE SMOOTH",
"463 510 OFFCURVE",
"420 411 OFFCURVE",
"362 348 CURVE",
"295 429 OFFCURVE",
"234 515 OFFCURVE",
"175 607 CURVE SMOOTH",
"161 629 OFFCURVE",
"151 640 OFFCURVE",
"127 640 CURVE SMOOTH",
"103 640 OFFCURVE",
"78 631 OFFCURVE",
"78 605 CURVE SMOOTH",
"78 592 OFFCURVE",
"89 570 OFFCURVE",
"105 547 CURVE SMOOTH",
"128 513 OFFCURVE",
"147 486 OFFCURVE",
"166 459 CURVE",
"70 343 OFFCURVE",
"40 262 OFFCURVE",
"40 197 CURVE SMOOTH",
"40 89 OFFCURVE",
"105 37 OFFCURVE",
"188 37 CURVE SMOOTH",
"241 37 OFFCURVE",
"300 55 OFFCURVE",
"332 118 CURVE SMOOTH",
"336 126 OFFCURVE",
"337 129 OFFCURVE",
"337 137 CURVE SMOOTH",
"337 155 OFFCURVE",
"311 178 OFFCURVE",
"289 178 CURVE SMOOTH",
"275 178 OFFCURVE",
"269 170 OFFCURVE",
"258 154 CURVE SMOOTH",
"245 135 OFFCURVE",
"229 113 OFFCURVE",
"194 113 CURVE SMOOTH",
"146 113 OFFCURVE",
"128 154 OFFCURVE",
"128 210 CURVE SMOOTH",
"128 245 OFFCURVE",
"143 306 OFFCURVE",
"213 394 CURVE",
"249 346 OFFCURVE",
"285 299 OFFCURVE",
"336 246 CURVE SMOOTH",
"428 152 OFFCURVE",
"487 94 OFFCURVE",
"548 46 CURVE SMOOTH",
"597 8 OFFCURVE",
"620 -4 OFFCURVE",
"644 -4 CURVE SMOOTH",
"667 -4 OFFCURVE",
"686 6 OFFCURVE",
"708 20 CURVE SMOOTH",
"827 96 OFFCURVE",
"884 243 OFFCURVE",
"884 387 CURVE SMOOTH",
"884 425 OFFCURVE",
"882 451 OFFCURVE",
"877 476 CURVE",
"948 448 OFFCURVE",
"1032 436 OFFCURVE",
"1084 436 CURVE",
"1084 429 LINE SMOOTH",
"1084 373 OFFCURVE",
"1111 318 OFFCURVE",
"1138 267 CURVE SMOOTH",
"1160 225 OFFCURVE",
"1180 186 OFFCURVE",
"1180 143 CURVE SMOOTH",
"1180 87 OFFCURVE",
"1142 66 OFFCURVE",
"1099 66 CURVE SMOOTH",
"1062 66 OFFCURVE",
"1028 82 OFFCURVE",
"1004 120 CURVE SMOOTH",
"997 131 OFFCURVE",
"992 136 OFFCURVE",
"978 136 CURVE SMOOTH",
"961 136 OFFCURVE",
"926 121 OFFCURVE",
"926 96 CURVE SMOOTH",
"926 54 OFFCURVE",
"984 -10 OFFCURVE",
"1096 -10 CURVE SMOOTH"
);
}
);
width = 1308;
}
);
},
{
glyphname = u1086710865;
lastChange = "2018-02-06 17:10:54 +0000";
layers = (
{
layerId = UUID0;
paths = (
{
closed = 1;
nodes = (
"646 -13 OFFCURVE",
"687 44 OFFCURVE",
"687 104 CURVE SMOOTH",
"687 151 OFFCURVE",
"670 222 OFFCURVE",
"647 291 CURVE",
"677 314 OFFCURVE",
"711 336 OFFCURVE",
"742 336 CURVE SMOOTH",
"777 336 OFFCURVE",
"844 291 OFFCURVE",
"900 250 CURVE",
"924 172 OFFCURVE",
"959 75 OFFCURVE",
"986 13 CURVE SMOOTH",
"994 -5 OFFCURVE",
"1005 -13 OFFCURVE",
"1030 -13 CURVE SMOOTH",
"1061 -13 OFFCURVE",
"1072 4 OFFCURVE",
"1072 19 CURVE SMOOTH",
"1072 29 OFFCURVE",
"1069 42 OFFCURVE",
"1057 71 CURVE SMOOTH",
"974 272 OFFCURVE",
"933 386 OFFCURVE",
"933 596 CURVE SMOOTH",
"933 630 OFFCURVE",
"931 640 OFFCURVE",
"892 640 CURVE SMOOTH",
"864 640 OFFCURVE",
"851 631 OFFCURVE",
"849 617 CURVE SMOOTH",
"846 594 OFFCURVE",
"846 576 OFFCURVE",
"846 558 CURVE SMOOTH",
"846 491 OFFCURVE",
"857 420 OFFCURVE",
"873 352 CURVE",
"821 385 OFFCURVE",
"783 408 OFFCURVE",
"746 408 CURVE SMOOTH",
"702 408 OFFCURVE",
"661 383 OFFCURVE",
"626 358 CURVE",
"604 442 OFFCURVE",
"593 545 OFFCURVE",
"593 607 CURVE SMOOTH",
"593 631 OFFCURVE",
"587 640 OFFCURVE",
"552 640 CURVE SMOOTH",
"515 640 OFFCURVE",
"507 627 OFFCURVE",
"507 602 CURVE SMOOTH",
"507 530 OFFCURVE",
"518 417 OFFCURVE",
"550 315 CURVE SMOOTH",
"578 225 OFFCURVE",
"599 146 OFFCURVE",
"599 114 CURVE SMOOTH",
"599 77 OFFCURVE",
"579 63 OFFCURVE",
"537 63 CURVE SMOOTH",
"489 63 OFFCURVE",
"460 90 OFFCURVE",
"448 153 CURVE SMOOTH",
"388 480 LINE SMOOTH",
"368 590 OFFCURVE",
"322 650 OFFCURVE",
"181 650 CURVE SMOOTH",
"46 650 OFFCURVE",
"0 594 OFFCURVE",
"0 527 CURVE SMOOTH",
"0 463 OFFCURVE",
"27 427 OFFCURVE",
"58 427 CURVE SMOOTH",
"75 427 OFFCURVE",
"96 439 OFFCURVE",
"96 459 CURVE SMOOTH",
"96 468 OFFCURVE",
"93 478 OFFCURVE",
"89 489 CURVE SMOOTH",
"86 498 OFFCURVE",
"84 507 OFFCURVE",
"84 521 CURVE SMOOTH",
"84 547 OFFCURVE",
"99 574 OFFCURVE",
"184 574 CURVE SMOOTH",
"267 574 OFFCURVE",
"290 533 OFFCURVE",
"303 462 CURVE SMOOTH",
"363 135 LINE SMOOTH",
"380 43 OFFCURVE",
"429 -13 OFFCURVE",
"539 -13 CURVE SMOOTH"
);
}
);
width = 1132;
}
);
},
{
glyphname = u1086710863;
lastChange = "2018-02-06 17:10:54 +0000";
layers = (
{
layerId = UUID0;
paths = (
{
closed = 1;
nodes = (
"726 -13 OFFCURVE",
"767 44 OFFCURVE",
"767 104 CURVE SMOOTH",
"767 151 OFFCURVE",
"750 222 OFFCURVE",
"727 291 CURVE",
"757 314 OFFCURVE",
"791 336 OFFCURVE",
"822 336 CURVE SMOOTH",
"857 336 OFFCURVE",
"924 291 OFFCURVE",
"980 250 CURVE",
"1004 172 OFFCURVE",
"1039 75 OFFCURVE",
"1066 13 CURVE SMOOTH",
"1074 -5 OFFCURVE",
"1085 -13 OFFCURVE",
"1110 -13 CURVE SMOOTH",
"1141 -13 OFFCURVE",
"1152 4 OFFCURVE",
"1152 19 CURVE SMOOTH",
"1152 29 OFFCURVE",
"1149 42 OFFCURVE",
"1137 71 CURVE SMOOTH",
"1054 272 OFFCURVE",
"1013 386 OFFCURVE",
"1013 596 CURVE SMOOTH",
"1013 630 OFFCURVE",
"1011 640 OFFCURVE",
"972 640 CURVE SMOOTH",
"944 640 OFFCURVE",
"931 631 OFFCURVE",
"929 617 CURVE SMOOTH",
"926 594 OFFCURVE",
"926 576 OFFCURVE",
"926 558 CURVE SMOOTH",
"926 491 OFFCURVE",
"937 420 OFFCURVE",
"953 352 CURVE",
"901 385 OFFCURVE",
"863 408 OFFCURVE",
"826 408 CURVE SMOOTH",
"782 408 OFFCURVE",
"741 383 OFFCURVE",
"706 358 CURVE",
"684 442 OFFCURVE",
"673 545 OFFCURVE",
"673 607 CURVE SMOOTH",
"673 631 OFFCURVE",
"667 640 OFFCURVE",
"632 640 CURVE SMOOTH",
"595 640 OFFCURVE",
"587 627 OFFCURVE",
"587 602 CURVE SMOOTH",
"587 530 OFFCURVE",
"598 417 OFFCURVE",
"630 315 CURVE SMOOTH",
"658 225 OFFCURVE",
"679 146 OFFCURVE",
"679 114 CURVE SMOOTH",
"679 77 OFFCURVE",
"659 63 OFFCURVE",
"616 63 CURVE SMOOTH",
"574 63 OFFCURVE",
"552 85 OFFCURVE",
"532 139 CURVE SMOOTH",
"475 293 OFFCURVE",
"444 441 OFFCURVE",
"444 617 CURVE SMOOTH",
"444 635 OFFCURVE",
"433 640 OFFCURVE",
"402 640 CURVE SMOOTH",
"377 640 OFFCURVE",
"363 632 OFFCURVE",
"360 612 CURVE SMOOTH",
"358 597 OFFCURVE",
"358 568 OFFCURVE",
"358 544 CURVE SMOOTH",
"358 486 OFFCURVE",
"294 452 OFFCURVE",
"243 452 CURVE SMOOTH",
"155 452 OFFCURVE",
"108 506 OFFCURVE",
"108 580 CURVE SMOOTH",
"108 589 OFFCURVE",
"108 595 OFFCURVE",
"109 604 CURVE SMOOTH",
"110 612 OFFCURVE",
"110 614 OFFCURVE",
"110 619 CURVE SMOOTH",
"110 633 OFFCURVE",
"99 640 OFFCURVE",
"66 640 CURVE SMOOTH",
"26 640 OFFCURVE",
"20 616 OFFCURVE",
"20 581 CURVE SMOOTH",
"20 521 OFFCURVE",
"53 376 OFFCURVE",
"241 376 CURVE SMOOTH",
"292 376 OFFCURVE",
"339 389 OFFCURVE",
"373 419 CURVE",
"389 316 OFFCURVE",
"414 216 OFFCURVE",
"450 115 CURVE SMOOTH",
"482 24 OFFCURVE",
"529 -13 OFFCURVE",
"616 -13 CURVE SMOOTH"
);
}
);
width = 1212;
}
);
},
{
glyphname = u1086110876;
lastChange = "2018-02-06 17:10:54 +0000";
layers = (
{
layerId = UUID0;
paths = (
{
closed = 1;
nodes = (
"269 -12 OFFCURVE",
"304 53 OFFCURVE",
"304 119 CURVE SMOOTH",
"304 166 OFFCURVE",
"290 226 OFFCURVE",
"275 288 CURVE",
"310 339 OFFCURVE",
"379 409 OFFCURVE",
"433 409 CURVE SMOOTH",
"500 409 OFFCURVE",
"515 319 OFFCURVE",
"543 157 CURVE SMOOTH",
"558 69 OFFCURVE",
"572 12 OFFCURVE",
"614 0 CURVE SMOOTH",
"638 -7 OFFCURVE",
"688 -8 OFFCURVE",
"786 -8 CURVE SMOOTH",
"856 -8 OFFCURVE",
"927 -3 OFFCURVE",
"971 3 CURVE SMOOTH",
"1020 10 OFFCURVE",
"1050 45 OFFCURVE",
"1050 93 CURVE SMOOTH",
"1050 159 OFFCURVE",
"1026 291 OFFCURVE",
"992 456 CURVE SMOOTH",
"965 588 OFFCURVE",
"948 635 OFFCURVE",
"896 635 CURVE SMOOTH",
"873 635 OFFCURVE",
"853 627 OFFCURVE",
"833 614 CURVE SMOOTH",
"809 598 OFFCURVE",
"780 582 OFFCURVE",
"725 582 CURVE SMOOTH",
"662 582 OFFCURVE",
"647 605 OFFCURVE",
"637 622 CURVE SMOOTH",
"625 643 OFFCURVE",
"614 647 OFFCURVE",
"591 647 CURVE SMOOTH",
"568 647 OFFCURVE",
"551 637 OFFCURVE",
"551 620 CURVE SMOOTH",
"551 588 OFFCURVE",
"599 508 OFFCURVE",
"712 508 CURVE SMOOTH",
"782 508 OFFCURVE",
"812 521 OFFCURVE",
"833 531 CURVE SMOOTH",
"848 538 OFFCURVE",
"856 540 OFFCURVE",
"864 540 CURVE SMOOTH",
"890 540 OFFCURVE",
"900 487 OFFCURVE",
"909 440 CURVE SMOOTH",
"934 311 OFFCURVE",
"962 150 OFFCURVE",
"962 118 CURVE SMOOTH",
"962 76 OFFCURVE",
"905 70 OFFCURVE",
"777 70 CURVE SMOOTH",
"725 70 OFFCURVE",
"673 73 OFFCURVE",
"650 78 CURVE",
"636 131 OFFCURVE",
"622 204 OFFCURVE",
"607 282 CURVE SMOOTH",
"585 396 OFFCURVE",
"554 485 OFFCURVE",
"439 485 CURVE SMOOTH",
"373 485 OFFCURVE",
"303 434 OFFCURVE",
"254 377 CURVE",
"234 450 OFFCURVE",
"217 528 OFFCURVE",
"214 608 CURVE SMOOTH",
"213 631 OFFCURVE",
"202 640 OFFCURVE",
"175 640 CURVE SMOOTH",
"138 640 OFFCURVE",
"125 627 OFFCURVE",
"125 602 CURVE SMOOTH",
"125 548 OFFCURVE",
"148 446 OFFCURVE",
"173 347 CURVE SMOOTH",
"196 255 OFFCURVE",
"216 166 OFFCURVE",
"216 121 CURVE SMOOTH",
"216 77 OFFCURVE",
"183 64 OFFCURVE",
"157 64 CURVE SMOOTH",
"128 64 OFFCURVE",
"105 77 OFFCURVE",
"92 87 CURVE SMOOTH",
"83 94 OFFCURVE",
"76 98 OFFCURVE",
"67 98 CURVE SMOOTH",
"49 98 OFFCURVE",
"30 77 OFFCURVE",
"30 55 CURVE SMOOTH",
"30 22 OFFCURVE",
"78 -12 OFFCURVE",
"153 -12 CURVE SMOOTH"
);
}
);
width = 1110;
}
);
},
{
glyphname = u1086110874;
lastChange = "2018-02-06 17:10:54 +0000";
layers = (
{
components = (
{
name = u1086110863;
}
);
layerId = UUID0;
paths = (
{
closed = 1;
nodes = (
"268 610 OFFCURVE",
"296 637 OFFCURVE",
"296 670 CURVE SMOOTH",
"296 697 OFFCURVE",
"279 721 OFFCURVE",
"246 721 CURVE SMOOTH",
"208 721 OFFCURVE",
"185 697 OFFCURVE",
"185 661 CURVE SMOOTH",
"185 631 OFFCURVE",
"203 610 OFFCURVE",
"234 610 CURVE SMOOTH"
);
}
);
width = 1060;
}
);
},
{
glyphname = u1086110865;
lastChange = "2018-02-06 17:10:54 +0000";
layers = (
{
layerId = UUID0;
paths = (
{
closed = 1;
nodes = (
"736 -8 OFFCURVE",
"807 -3 OFFCURVE",
"851 3 CURVE SMOOTH",
"900 10 OFFCURVE",
"930 45 OFFCURVE",
"930 93 CURVE SMOOTH",
"930 159 OFFCURVE",
"906 291 OFFCURVE",
"872 456 CURVE SMOOTH",
"845 588 OFFCURVE",
"828 635 OFFCURVE",
"776 635 CURVE SMOOTH",
"753 635 OFFCURVE",
"733 627 OFFCURVE",
"713 614 CURVE SMOOTH",
"689 598 OFFCURVE",
"660 582 OFFCURVE",
"605 582 CURVE SMOOTH",
"542 582 OFFCURVE",
"527 605 OFFCURVE",
"517 622 CURVE SMOOTH",
"505 643 OFFCURVE",
"494 647 OFFCURVE",
"470 647 CURVE SMOOTH",
"448 647 OFFCURVE",
"431 637 OFFCURVE",
"431 620 CURVE SMOOTH",
"431 588 OFFCURVE",
"479 508 OFFCURVE",
"592 508 CURVE SMOOTH",
"662 508 OFFCURVE",
"692 521 OFFCURVE",
"713 531 CURVE SMOOTH",
"728 538 OFFCURVE",
"736 540 OFFCURVE",
"744 540 CURVE SMOOTH",
"770 540 OFFCURVE",
"780 487 OFFCURVE",
"789 440 CURVE SMOOTH",
"814 311 OFFCURVE",
"842 150 OFFCURVE",
"842 118 CURVE SMOOTH",
"842 76 OFFCURVE",
"785 70 OFFCURVE",
"657 70 CURVE SMOOTH",
"577 70 OFFCURVE",
"497 74 OFFCURVE",
"462 82 CURVE",
"449 135 OFFCURVE",
"436 207 OFFCURVE",
"422 286 CURVE SMOOTH",
"388 480 LINE SMOOTH",
"369 591 OFFCURVE",
"322 650 OFFCURVE",
"181 650 CURVE SMOOTH",
"46 650 OFFCURVE",
"0 594 OFFCURVE",
"0 527 CURVE SMOOTH",
"0 463 OFFCURVE",
"27 427 OFFCURVE",
"58 427 CURVE SMOOTH",
"75 427 OFFCURVE",
"96 439 OFFCURVE",
"96 459 CURVE SMOOTH",
"96 468 OFFCURVE",
"93 478 OFFCURVE",
"89 489 CURVE SMOOTH",
"86 498 OFFCURVE",
"84 507 OFFCURVE",
"84 521 CURVE SMOOTH",
"84 547 OFFCURVE",
"99 574 OFFCURVE",
"184 574 CURVE SMOOTH",
"267 574 OFFCURVE",
"291 533 OFFCURVE",
"303 462 CURVE SMOOTH",
"355 161 LINE SMOOTH",
"370 73 OFFCURVE",
"384 16 OFFCURVE",
"426 4 CURVE SMOOTH",
"460 -6 OFFCURVE",
"529 -8 OFFCURVE",
"666 -8 CURVE SMOOTH"
);
}
);
width = 990;
}
);
},
{
glyphname = u1086110863;
lastChange = "2018-02-06 17:10:54 +0000";
layers = (
{
layerId = UUID0;
paths = (
{
closed = 1;
nodes = (
"806 -8 OFFCURVE",
"877 -3 OFFCURVE",
"921 3 CURVE SMOOTH",
"970 10 OFFCURVE",
"1000 45 OFFCURVE",
"1000 93 CURVE SMOOTH",
"1000 159 OFFCURVE",
"976 291 OFFCURVE",
"942 456 CURVE SMOOTH",
"915 588 OFFCURVE",
"898 635 OFFCURVE",
"846 635 CURVE SMOOTH",
"823 635 OFFCURVE",
"803 627 OFFCURVE",
"783 614 CURVE SMOOTH",
"759 598 OFFCURVE",
"730 582 OFFCURVE",
"675 582 CURVE SMOOTH",
"612 582 OFFCURVE",
"597 605 OFFCURVE",
"587 622 CURVE SMOOTH",
"575 643 OFFCURVE",
"564 647 OFFCURVE",
"541 647 CURVE SMOOTH",
"518 647 OFFCURVE",
"501 637 OFFCURVE",
"501 620 CURVE SMOOTH",
"501 588 OFFCURVE",
"549 508 OFFCURVE",
"662 508 CURVE SMOOTH",
"732 508 OFFCURVE",
"762 521 OFFCURVE",
"783 531 CURVE SMOOTH",
"798 538 OFFCURVE",
"806 540 OFFCURVE",
"814 540 CURVE SMOOTH",
"840 540 OFFCURVE",
"850 487 OFFCURVE",
"859 440 CURVE SMOOTH",
"884 311 OFFCURVE",
"912 150 OFFCURVE",
"912 118 CURVE SMOOTH",
"912 76 OFFCURVE",
"855 70 OFFCURVE",
"727 70 CURVE SMOOTH",
"656 70 OFFCURVE",
"586 73 OFFCURVE",
"554 78 CURVE",
"531 141 OFFCURVE",
"511 200 OFFCURVE",
"493 264 CURVE SMOOTH",
"457 392 OFFCURVE",
"444 494 OFFCURVE",
"444 617 CURVE SMOOTH",
"444 635 OFFCURVE",
"433 640 OFFCURVE",
"402 640 CURVE SMOOTH",
"377 640 OFFCURVE",
"363 632 OFFCURVE",
"360 612 CURVE SMOOTH",
"358 597 OFFCURVE",
"358 568 OFFCURVE",
"358 544 CURVE SMOOTH",
"358 486 OFFCURVE",
"294 452 OFFCURVE",
"243 452 CURVE SMOOTH",
"155 452 OFFCURVE",
"108 506 OFFCURVE",
"108 580 CURVE SMOOTH",
"108 589 OFFCURVE",
"108 595 OFFCURVE",
"109 604 CURVE SMOOTH",
"110 612 OFFCURVE",
"110 614 OFFCURVE",
"110 619 CURVE SMOOTH",
"110 633 OFFCURVE",
"99 640 OFFCURVE",
"66 640 CURVE SMOOTH",
"26 640 OFFCURVE",
"20 616 OFFCURVE",
"20 581 CURVE SMOOTH",
"20 521 OFFCURVE",
"53 376 OFFCURVE",
"241 376 CURVE SMOOTH",
"292 376 OFFCURVE",
"339 389 OFFCURVE",
"373 419 CURVE",
"398 256 OFFCURVE",
"459 87 OFFCURVE",
"471 54 CURVE SMOOTH",
"482 25 OFFCURVE",
"496 6 OFFCURVE",
"518 0 CURVE SMOOTH",
"549 -8 OFFCURVE",
"612 -8 OFFCURVE",
"736 -8 CURVE SMOOTH"
);
}
);
width = 1060;
}
);
},
{
glyphname = u1086110860;
lastChange = "2018-02-06 17:10:54 +0000";
layers = (
{
layerId = UUID0;
paths = (
{
closed = 1;
nodes = (
"926 -8 OFFCURVE",
"997 -3 OFFCURVE",
"1041 3 CURVE SMOOTH",
"1090 10 OFFCURVE",
"1120 45 OFFCURVE",
"1120 93 CURVE SMOOTH",
"1120 159 OFFCURVE",
"1096 291 OFFCURVE",
"1062 456 CURVE SMOOTH",
"1035 588 OFFCURVE",
"1018 635 OFFCURVE",
"966 635 CURVE SMOOTH",
"943 635 OFFCURVE",
"923 627 OFFCURVE",
"903 614 CURVE SMOOTH",
"879 598 OFFCURVE",
"850 582 OFFCURVE",
"795 582 CURVE SMOOTH",
"732 582 OFFCURVE",
"717 605 OFFCURVE",
"707 622 CURVE SMOOTH",
"695 643 OFFCURVE",
"684 647 OFFCURVE",
"661 647 CURVE SMOOTH",
"638 647 OFFCURVE",
"621 637 OFFCURVE",
"621 620 CURVE SMOOTH",
"621 588 OFFCURVE",
"669 508 OFFCURVE",
"782 508 CURVE SMOOTH",
"852 508 OFFCURVE",
"882 521 OFFCURVE",
"903 531 CURVE SMOOTH",
"918 538 OFFCURVE",
"926 540 OFFCURVE",
"934 540 CURVE SMOOTH",
"960 540 OFFCURVE",
"970 487 OFFCURVE",
"979 440 CURVE SMOOTH",
"1004 311 OFFCURVE",
"1032 150 OFFCURVE",
"1032 118 CURVE SMOOTH",
"1032 76 OFFCURVE",
"975 70 OFFCURVE",
"847 70 CURVE SMOOTH",
"737 70 OFFCURVE",
"685 73 OFFCURVE",
"625 101 CURVE SMOOTH",
"565 129 OFFCURVE",
"490 207 OFFCURVE",
"419 283 CURVE",
"483 353 OFFCURVE",
"562 511 OFFCURVE",
"562 605 CURVE SMOOTH",
"562 634 OFFCURVE",
"543 640 OFFCURVE",
"511 640 CURVE SMOOTH",
"489 640 OFFCURVE",
"476 633 OFFCURVE",
"473 605 CURVE SMOOTH",
"463 510 OFFCURVE",
"420 411 OFFCURVE",
"362 348 CURVE",
"295 429 OFFCURVE",
"234 515 OFFCURVE",
"175 607 CURVE SMOOTH",
"161 629 OFFCURVE",
"151 640 OFFCURVE",
"127 640 CURVE SMOOTH",
"103 640 OFFCURVE",
"78 631 OFFCURVE",
"78 605 CURVE SMOOTH",
"78 592 OFFCURVE",
"89 570 OFFCURVE",
"105 547 CURVE SMOOTH",
"128 513 OFFCURVE",
"147 486 OFFCURVE",
"166 459 CURVE",
"70 343 OFFCURVE",
"40 262 OFFCURVE",
"40 197 CURVE SMOOTH",
"40 89 OFFCURVE",
"105 37 OFFCURVE",
"188 37 CURVE SMOOTH",
"241 37 OFFCURVE",
"300 55 OFFCURVE",
"332 118 CURVE SMOOTH",
"336 126 OFFCURVE",
"337 129 OFFCURVE",
"337 137 CURVE SMOOTH",
"337 155 OFFCURVE",
"311 178 OFFCURVE",
"289 178 CURVE SMOOTH",
"275 178 OFFCURVE",
"269 170 OFFCURVE",
"258 154 CURVE SMOOTH",
"245 135 OFFCURVE",
"229 113 OFFCURVE",
"194 113 CURVE SMOOTH",
"146 113 OFFCURVE",
"128 154 OFFCURVE",
"128 210 CURVE SMOOTH",
"128 245 OFFCURVE",
"143 306 OFFCURVE",
"213 394 CURVE",
"249 346 OFFCURVE",
"286 300 OFFCURVE",
"336 246 CURVE SMOOTH",
"427 148 OFFCURVE",
"503 69 OFFCURVE",
"575 32 CURVE SMOOTH",
"636 1 OFFCURVE",
"703 -8 OFFCURVE",
"856 -8 CURVE SMOOTH"
);
}
);
width = 1180;
}
);
},
